<svg width="78" height="77" viewBox="0 0 78 77" fill="none" xmlns="http://www.w3.org/2000/svg">
<g clip-path="url(#clip0_15_8505)">
<path d="M24.1075 0.000244141H10.7944C4.79751 0.000244141 0 4.79775 0 10.6747V24.1077C0 29.9847 4.79751 34.7822 10.7944 34.7822H24.1075C29.9844 34.7822 34.7819 29.9847 34.7819 24.1077V10.6747C34.7819 4.79775 29.9844 0.000244141 24.1075 0.000244141Z" fill="#7DB928"/>
<path d="M66.4455 0.000244141H49.0545C43.1776 0.000244141 38.3801 4.79775 38.3801 10.6747V27.466C38.3801 33.3429 33.5826 38.1404 27.7056 38.1404H10.7944C4.79751 38.1404 0 42.9379 0 48.8149V66.2058C0 72.2027 4.79751 77.0002 10.7944 77.0002H66.4455C72.3224 77.0002 77.1199 72.2027 77.1199 66.2058V10.6747C77.1199 4.79775 72.3224 0.000244141 66.4455 0.000244141Z" fill="white"/>
<path d="M65.6059 65.7261H61.0483L52.5327 54.8118V65.7261H47.9751V47.9754H52.5327L61.0483 58.7698V47.9754H65.6059V65.7261ZM43.4175 65.7261H29.1449L36.4611 57.8103C37.7804 56.371 38.3801 54.8118 38.3801 53.4925C38.3801 52.8928 38.2601 52.2931 37.9003 51.8134C37.4206 51.3336 36.9408 51.0937 36.4611 51.0937C35.8614 51.0937 35.3816 51.3336 35.0218 51.6934C34.662 52.1732 34.4221 52.6529 34.4221 53.2526C34.4221 53.4925 34.5421 53.8523 34.5421 54.0922H29.5047C29.5047 52.0532 30.2243 50.3741 31.4237 49.0548C32.6231 47.8554 34.3022 47.2557 36.3411 47.2557C38.2601 47.2557 39.9393 47.8554 41.2586 48.9349C42.5779 50.1342 43.1776 51.6934 43.1776 53.4925C43.1776 54.6919 43.0576 55.7713 42.5779 56.6109C42.0981 57.4504 41.3785 58.29 40.419 59.2495L37.6605 61.7682H43.4175V65.7261ZM25.1869 53.8523C24.7072 53.2526 24.1075 52.7729 23.3879 52.4131C22.6682 52.0532 21.9486 51.9333 21.1091 51.9333C19.6698 51.9333 18.5904 52.4131 17.6309 53.3726C16.7913 54.3321 16.3115 55.4115 16.3115 56.8508C16.3115 58.29 16.7913 59.3694 17.7508 60.3289C18.5904 61.2884 19.7897 61.6483 21.229 61.6483C21.9486 61.6483 22.6682 61.5283 23.3879 61.1685C24.1075 60.8087 24.7072 60.3289 25.1869 59.8492V65.3663C23.3879 65.8461 21.9486 66.2059 21.1091 66.2059C18.5904 66.2059 16.3115 65.2464 14.3925 63.5673C12.4735 61.8881 11.514 59.6093 11.514 56.8508C11.514 54.3321 12.4735 52.1732 14.1527 50.3741C15.1122 49.4146 16.0717 48.695 17.271 48.2152C18.4704 47.7355 19.6698 47.4956 20.9891 47.4956C22.3084 47.4956 23.7477 47.7355 25.1869 48.3352V53.8523Z" fill="#174269"/>
</g>
<defs>
<clipPath id="clip0_15_8505">
<rect width="77.1199" height="77" fill="white" transform="translate(0 0.000244141)"/>
</clipPath>
</defs>
</svg>
