<svg width="78" height="77" viewBox="0 0 78 77" fill="none" xmlns="http://www.w3.org/2000/svg">
<g clip-path="url(#clip0_4_2868)">
<path d="M24.1075 0H10.7944C4.79751 0 0 4.79751 0 10.6745V24.1075C0 29.9844 4.79751 34.7819 10.7944 34.7819H24.1075C29.9844 34.7819 34.7819 29.9844 34.7819 24.1075V10.6745C34.7819 4.79751 29.9844 0 24.1075 0Z" fill="#7DB928"/>
<path d="M66.4455 0H49.0545C43.1776 0 38.3801 4.79751 38.3801 10.6745V27.4657C38.3801 33.3427 33.5826 38.1402 27.7056 38.1402H10.7944C4.79751 38.1402 0 42.9377 0 48.8146V66.2056C0 72.2025 4.79751 77 10.7944 77H66.4455C72.3224 77 77.1199 72.2025 77.1199 66.2056V10.6745C77.1199 4.79751 72.3224 0 66.4455 0Z" fill="white"/>
<path d="M65.6059 65.7259H61.0483L52.5327 54.8116V65.7259H47.9751V47.9751H52.5327L61.0483 58.7695V47.9751H65.6059V65.7259ZM43.4175 65.7259H29.1449L36.4611 57.81C37.7804 56.3708 38.3801 54.8116 38.3801 53.4923C38.3801 52.8926 38.2601 52.2929 37.9003 51.8131C37.4206 51.3334 36.9408 51.0935 36.4611 51.0935C35.8614 51.0935 35.3816 51.3334 35.0218 51.6932C34.662 52.1729 34.4221 52.6527 34.4221 53.2524C34.4221 53.4923 34.5421 53.8521 34.5421 54.0919H29.5047C29.5047 52.053 30.2243 50.3739 31.4237 49.0546C32.6231 47.8552 34.3022 47.2555 36.3411 47.2555C38.2601 47.2555 39.9393 47.8552 41.2586 48.9346C42.5779 50.134 43.1776 51.6932 43.1776 53.4923C43.1776 54.6916 43.0576 55.7711 42.5779 56.6106C42.0981 57.4502 41.3785 58.2898 40.419 59.2493L37.6605 61.768H43.4175V65.7259ZM25.1869 53.8521C24.7072 53.2524 24.1075 52.7726 23.3879 52.4128C22.6682 52.053 21.9486 51.9331 21.1091 51.9331C19.6698 51.9331 18.5904 52.4128 17.6309 53.3723C16.7913 54.3318 16.3115 55.4113 16.3115 56.8505C16.3115 58.2898 16.7913 59.3692 17.7508 60.3287C18.5904 61.2882 19.7897 61.648 21.229 61.648C21.9486 61.648 22.6682 61.5281 23.3879 61.1683C24.1075 60.8085 24.7072 60.3287 25.1869 59.849V65.3661C23.3879 65.8458 21.9486 66.2056 21.1091 66.2056C18.5904 66.2056 16.3115 65.2461 14.3925 63.567C12.4735 61.8879 11.514 59.6091 11.514 56.8505C11.514 54.3318 12.4735 52.1729 14.1527 50.3739C15.1122 49.4144 16.0717 48.6947 17.271 48.215C18.4704 47.7352 19.6698 47.4954 20.9891 47.4954C22.3084 47.4954 23.7477 47.7352 25.1869 48.3349V53.8521Z" fill="#174269"/>
</g>
<defs>
<clipPath id="clip0_4_2868">
<rect width="77.1199" height="77" fill="white"/>
</clipPath>
</defs>
</svg>
