<svg width="24" height="24" viewBox="0 0 24 24" fill="none" xmlns="http://www.w3.org/2000/svg">
<path d="M11.6709 7.21431C10.7243 7.21431 9.79901 7.49499 9.01197 8.02088C8.22493 8.54676 7.61151 9.29421 7.24928 10.1687C6.88705 11.0432 6.79227 12.0055 6.97693 12.9339C7.1616 13.8623 7.61741 14.715 8.28673 15.3843C8.95605 16.0537 9.80882 16.5095 10.7372 16.6941C11.6656 16.8788 12.6278 16.784 13.5024 16.4218C14.3769 16.0596 15.1243 15.4461 15.6502 14.6591C16.1761 13.8721 16.4568 12.9468 16.4568 12.0002C16.4578 11.3714 16.3346 10.7487 16.0945 10.1676C15.8543 9.58645 15.5018 9.05847 15.0572 8.61386C14.6126 8.16925 14.0846 7.81676 13.5035 7.5766C12.9224 7.33644 12.2996 7.21332 11.6709 7.21431V7.21431ZM11.6709 15.1117C11.0555 15.1117 10.4539 14.9292 9.94224 14.5873C9.43056 14.2454 9.03176 13.7595 8.79626 13.1909C8.56076 12.6224 8.49914 11.9968 8.6192 11.3932C8.73926 10.7896 9.03559 10.2352 9.47074 9.80007C9.90589 9.36493 10.4603 9.06859 11.0639 8.94853C11.6674 8.82848 12.293 8.89009 12.8616 9.12559C13.4301 9.36109 13.9161 9.75989 14.258 10.2716C14.5998 10.7832 14.7823 11.3848 14.7823 12.0002C14.7808 12.8249 14.4525 13.6155 13.8693 14.1986C13.2861 14.7818 12.4956 15.1101 11.6709 15.1117V15.1117ZM17.7688 7.01854C17.7688 7.23932 17.7034 7.45514 17.5807 7.63872C17.458 7.82229 17.2837 7.96537 17.0797 8.04986C16.8757 8.13435 16.6513 8.15645 16.4348 8.11338C16.2182 8.07031 16.0193 7.96399 15.8632 7.80788C15.7071 7.65176 15.6008 7.45286 15.5577 7.23632C15.5146 7.01978 15.5367 6.79533 15.6212 6.59135C15.7057 6.38738 15.8488 6.21303 16.0324 6.09037C16.2159 5.96771 16.4318 5.90225 16.6525 5.90225C16.7992 5.90192 16.9445 5.93056 17.0801 5.98655C17.2157 6.04253 17.3389 6.12474 17.4426 6.22846C17.5463 6.33219 17.6285 6.45538 17.6845 6.59096C17.7405 6.72655 17.7692 6.87185 17.7688 7.01854V7.01854ZM20.9386 8.15149C20.8678 6.65616 20.5262 5.3316 19.4308 4.2403C18.3353 3.149 17.0149 2.80745 15.5196 2.73247C13.9784 2.645 9.35915 2.645 7.818 2.73247C6.32683 2.80328 5.00227 3.14484 3.90681 4.23614C2.81134 5.32744 2.47395 6.65199 2.39898 8.14733C2.31151 9.68848 2.31151 14.3078 2.39898 15.8489C2.46979 17.3442 2.81134 18.6688 3.90681 19.7601C5.00227 20.8514 6.32266 21.193 7.818 21.2679C9.35915 21.3554 13.9784 21.3554 15.5196 21.2679C17.0149 21.1971 18.3395 20.8556 19.4308 19.7601C20.5221 18.6646 20.8636 17.3442 20.9386 15.8489C21.0261 14.3078 21.0261 9.69264 20.9386 8.15149V8.15149ZM18.9476 17.5025C18.7892 17.9041 18.5499 18.2688 18.2447 18.574C17.9395 18.8793 17.5748 19.1185 17.1732 19.2769C15.9444 19.7643 13.0288 19.6518 11.6709 19.6518C10.313 19.6518 7.39314 19.7601 6.16855 19.2769C5.76699 19.1185 5.40228 18.8793 5.09704 18.574C4.7918 18.2688 4.55255 17.9041 4.39414 17.5025C3.90681 16.2738 4.01927 13.3581 4.01927 12.0002C4.01927 10.6423 3.91097 7.72247 4.39414 6.49788C4.55255 6.09632 4.7918 5.73161 5.09704 5.42637C5.40228 5.12113 5.76699 4.88188 6.16855 4.72347C7.3973 4.23614 10.313 4.3486 11.6709 4.3486C13.0288 4.3486 15.9486 4.2403 17.1732 4.72347C17.5748 4.88188 17.9395 5.12113 18.2447 5.42637C18.5499 5.73161 18.7892 6.09632 18.9476 6.49788C19.4349 7.72663 19.3225 10.6423 19.3225 12.0002C19.3225 13.3581 19.4349 16.2779 18.9476 17.5025Z" fill="white"/>
</svg>
