<svg width="24" height="24" viewBox="0 0 24 24" fill="none" xmlns="http://www.w3.org/2000/svg">
<path d="M11.6709 7.21406C10.7243 7.21406 9.79901 7.49475 9.01197 8.02063C8.22493 8.54651 7.61151 9.29397 7.24928 10.1685C6.88705 11.043 6.79227 12.0053 6.97693 12.9336C7.1616 13.862 7.61741 14.7148 8.28673 15.3841C8.95605 16.0534 9.80882 16.5092 10.7372 16.6939C11.6656 16.8786 12.6278 16.7838 13.5024 16.4216C14.3769 16.0593 15.1243 15.4459 15.6502 14.6589C16.1761 13.8718 16.4568 12.9465 16.4568 12C16.4578 11.3712 16.3346 10.7484 16.0945 10.1673C15.8543 9.58621 15.5018 9.05823 15.0572 8.61362C14.6126 8.16901 14.0846 7.81652 13.5035 7.57636C12.9224 7.33619 12.2996 7.21307 11.6709 7.21406V7.21406ZM11.6709 15.1114C11.0555 15.1114 10.4539 14.9289 9.94224 14.587C9.43056 14.2452 9.03176 13.7592 8.79626 13.1907C8.56076 12.6221 8.49914 11.9965 8.6192 11.3929C8.73926 10.7894 9.03559 10.235 9.47074 9.79983C9.90589 9.36468 10.4603 9.06834 11.0639 8.94829C11.6674 8.82823 12.293 8.88985 12.8616 9.12535C13.4301 9.36085 13.9161 9.75965 14.258 10.2713C14.5998 10.783 14.7823 11.3846 14.7823 12C14.7808 12.8247 14.4525 13.6152 13.8693 14.1984C13.2861 14.7816 12.4956 15.1099 11.6709 15.1114V15.1114ZM17.7688 7.01829C17.7688 7.23908 17.7034 7.4549 17.5807 7.63847C17.458 7.82205 17.2837 7.96512 17.0797 8.04961C16.8757 8.1341 16.6513 8.15621 16.4348 8.11314C16.2182 8.07007 16.0193 7.96375 15.8632 7.80763C15.7071 7.65152 15.6008 7.45261 15.5577 7.23607C15.5146 7.01953 15.5367 6.79508 15.6212 6.59111C15.7057 6.38713 15.8488 6.21279 16.0324 6.09013C16.2159 5.96747 16.4318 5.902 16.6525 5.902C16.7992 5.90167 16.9445 5.93032 17.0801 5.9863C17.2157 6.04229 17.3389 6.1245 17.4426 6.22822C17.5463 6.33194 17.6285 6.45513 17.6845 6.59072C17.7405 6.7263 17.7692 6.87161 17.7688 7.01829V7.01829ZM20.9386 8.15125C20.8678 6.65592 20.5262 5.33136 19.4308 4.24006C18.3353 3.14876 17.0149 2.8072 15.5196 2.73223C13.9784 2.64476 9.35915 2.64476 7.818 2.73223C6.32683 2.80304 5.00227 3.14459 3.90681 4.23589C2.81134 5.32719 2.47395 6.65175 2.39898 8.14708C2.31151 9.68823 2.31151 14.3075 2.39898 15.8487C2.46979 17.344 2.81134 18.6686 3.90681 19.7599C5.00227 20.8512 6.32266 21.1927 7.818 21.2677C9.35915 21.3552 13.9784 21.3552 15.5196 21.2677C17.0149 21.1969 18.3395 20.8553 19.4308 19.7599C20.5221 18.6644 20.8636 17.344 20.9386 15.8487C21.0261 14.3075 21.0261 9.6924 20.9386 8.15125V8.15125ZM18.9476 17.5023C18.7892 17.9038 18.5499 18.2686 18.2447 18.5738C17.9395 18.879 17.5748 19.1183 17.1732 19.2767C15.9444 19.764 13.0288 19.6516 11.6709 19.6516C10.313 19.6516 7.39314 19.7599 6.16855 19.2767C5.76699 19.1183 5.40228 18.879 5.09704 18.5738C4.7918 18.2686 4.55255 17.9038 4.39414 17.5023C3.90681 16.2735 4.01927 13.3578 4.01927 12C4.01927 10.6421 3.91097 7.72223 4.39414 6.49764C4.55255 6.09608 4.7918 5.73136 5.09704 5.42612C5.40228 5.12089 5.76699 4.88164 6.16855 4.72323C7.3973 4.23589 10.313 4.34835 11.6709 4.34835C13.0288 4.34835 15.9486 4.24006 17.1732 4.72323C17.5748 4.88164 17.9395 5.12089 18.2447 5.42612C18.5499 5.73136 18.7892 6.09608 18.9476 6.49764C19.4349 7.72639 19.3225 10.6421 19.3225 12C19.3225 13.3578 19.4349 16.2777 18.9476 17.5023Z" fill="white"/>
</svg>
