<svg width="34" height="23" viewBox="0 0 34 23" fill="none" xmlns="http://www.w3.org/2000/svg">
<path fill-rule="evenodd" clip-rule="evenodd" d="M0 1.5C0 0.671573 0.845684 0 1.88889 0H32.1111C33.1543 0 34 0.671573 34 1.5C34 2.32843 33.1543 3 32.1111 3H1.88889C0.845684 3 0 2.32843 0 1.5Z" fill="#164369"/>
<path fill-rule="evenodd" clip-rule="evenodd" d="M0 11.5C0 10.6716 0.845684 10 1.88889 10H32.1111C33.1543 10 34 10.6716 34 11.5C34 12.3284 33.1543 13 32.1111 13H1.88889C0.845684 13 0 12.3284 0 11.5Z" fill="#164369"/>
<path fill-rule="evenodd" clip-rule="evenodd" d="M0 21.5C0 20.6716 0.845684 20 1.88889 20H32.1111C33.1543 20 34 20.6716 34 21.5C34 22.3284 33.1543 23 32.1111 23H1.88889C0.845684 23 0 22.3284 0 21.5Z" fill="#164369"/>
</svg>
