<svg width="14" height="24" viewBox="0 0 14 24" fill="none" xmlns="http://www.w3.org/2000/svg">
<path d="M13.9999 11.7897C13.9999 11.4501 13.8641 11.1106 13.6059 10.8796L2.83516 0.366889C2.60426 0.13601 2.30544 0.000173914 1.96589 0.00017391C1.2596 0.000173901 0.716309 0.529964 0.716309 1.23616C0.716309 1.57576 0.852135 1.88811 1.06945 2.11911L11.7044 12.5231L11.7044 11.0698L1.06945 21.4739C0.852135 21.6912 0.716309 22.0036 0.716309 22.3568C0.716309 23.0631 1.2596 23.5928 1.96589 23.5928C2.30544 23.5928 2.60426 23.4569 2.84875 23.226L13.6059 12.7133C13.8641 12.4552 13.9999 12.1428 13.9999 11.7897Z" fill="#7DB928"/>
</svg>
