<svg width="14" height="24" viewBox="0 0 14 24" fill="none" xmlns="http://www.w3.org/2000/svg">
<path d="M-2.09396e-05 11.8031C-2.09544e-05 12.1427 0.135817 12.4822 0.393933 12.7131L11.1647 23.2259C11.3956 23.4568 11.6944 23.5926 12.034 23.5926C12.7403 23.5926 13.2836 23.0628 13.2836 22.3566C13.2836 22.017 13.1477 21.7047 12.9304 21.4737L2.29544 11.0696L2.29544 12.523L12.9304 2.11884C13.1477 1.90152 13.2836 1.58913 13.2836 1.236C13.2836 0.529712 12.7403 -2.37482e-08 12.034 -5.4621e-08C11.6944 -6.94632e-08 11.3956 0.135824 11.1511 0.366723L0.393933 10.8795C0.135817 11.1375 -2.09241e-05 11.4499 -2.09396e-05 11.8031Z" fill="#7DB928"/>
</svg>
