<svg width="173" height="73" viewBox="0 0 173 73" fill="none" xmlns="http://www.w3.org/2000/svg">
<g clip-path="url(#clip0_4_2872)">
<path d="M12.9534 10.1135C12.9534 9.75373 12.9534 9.39391 13.0733 9.15404C13.0733 8.91416 13.0733 8.67429 13.1933 8.43441C13.3132 8.19454 13.4331 7.95466 13.5531 7.83472C13.793 7.71479 13.9129 7.59485 14.2727 7.59485C14.5126 7.59485 14.6325 7.71479 14.8724 7.83472C14.9923 7.95466 15.1123 8.19454 15.2322 8.43441C15.3521 8.67429 15.3521 8.91416 15.3521 9.15404C15.4721 9.39391 15.4721 9.63379 15.4721 9.9936V10.7132H12.9534V10.1135ZM10.5546 14.4313C10.6746 15.031 10.7945 15.5107 10.9144 16.1104C11.0344 16.5902 11.2743 17.0699 11.5141 17.3098C11.754 17.6696 12.1138 17.9095 12.5936 18.1494C13.0733 18.3892 13.5531 18.5092 14.1528 18.5092C15.4721 18.5092 16.4316 18.1494 17.0313 17.4297C17.631 16.8301 17.8708 15.7506 17.9908 14.4313H15.4721V15.1509C15.3521 15.3908 15.3521 15.6307 15.2322 15.8705C15.1123 15.9905 14.9923 16.2304 14.8724 16.2304C14.7525 16.3503 14.5126 16.4702 14.2727 16.4702C14.0328 16.4702 13.7929 16.3503 13.673 16.2304C13.5531 16.2304 13.4331 15.9905 13.3132 15.8705C13.1933 15.7506 13.1933 15.5107 13.0733 15.2709C13.0733 15.031 12.9534 14.7911 12.9534 14.5512V12.0325H17.9908V10.1135C17.8708 9.63379 17.8708 9.15404 17.7509 8.67429C17.631 8.0746 17.511 7.71479 17.3911 7.35497C17.1512 6.99516 16.9113 6.63535 16.6715 6.39547C16.4316 6.1556 16.0718 5.91572 15.592 5.79578C15.2322 5.67585 14.7525 5.55591 14.2727 5.55591C13.673 5.55591 13.0733 5.67585 12.7135 5.79578C12.2338 6.03566 11.8739 6.27553 11.6341 6.63535C11.2743 6.87522 11.1543 7.23504 10.9144 7.71479C10.7945 8.19454 10.6746 8.67429 10.5546 9.27398C10.5546 9.75373 10.4347 10.3534 10.4347 10.9531V12.6322C10.4347 13.3519 10.5546 13.9515 10.5546 14.4313Z" fill="white"/>
<path d="M27.9455 18.2693V7.59485C27.9455 6.99516 27.8255 6.51541 27.4657 6.1556C27.1059 5.79578 26.7461 5.55591 26.1464 5.55591C25.6667 5.55591 25.3069 5.67585 24.8271 5.79578C24.4673 5.91572 24.1075 6.1556 23.8676 6.27553C23.6277 6.51541 23.2679 6.75529 22.9081 7.1151V5.67585H20.3894V18.2693H22.9081V8.31447C23.148 8.19454 23.2679 8.0746 23.3878 7.95466C23.5078 7.95466 23.6277 7.83472 23.8676 7.71479C24.1075 7.71479 24.3474 7.59485 24.4673 7.59485C24.947 7.59485 25.1869 7.71479 25.3068 7.95466C25.4268 8.0746 25.4268 8.43441 25.4268 8.91416V18.2693H27.9455Z" fill="white"/>
<path d="M33.9424 1.35815H31.4237V5.67591H30.1044V7.59492H31.4237V15.3909C31.4237 16.4703 31.6636 17.1899 32.1433 17.7896C32.5031 18.2694 33.2227 18.5092 34.3022 18.5092C34.662 18.5092 35.1418 18.5092 35.8614 18.3893V16.3504C35.5016 16.3504 35.1418 16.4703 35.0218 16.4703C34.5421 16.4703 34.3022 16.3504 34.1823 16.1105C34.0623 15.8706 33.9424 15.5108 33.9424 14.9111V7.59492H35.8614V5.67591H33.9424V1.35815Z" fill="white"/>
<path d="M40.7788 9.87367C40.7788 9.27398 40.8988 8.91416 41.2586 8.55435C41.6184 8.31448 41.9782 8.0746 42.5779 8.0746C43.0576 8.0746 43.4175 8.19454 43.8972 8.43441V5.55591H43.5374C42.9377 5.55591 42.338 5.79578 41.8583 6.1556C41.3785 6.51541 41.0187 6.87522 40.7788 7.35497V5.67585H38.2601V18.2693H40.7788V9.87367Z" fill="white"/>
<path d="M47.8552 10.1135C47.8552 9.75373 47.9752 9.39391 47.9752 9.15404C47.9752 8.91416 48.0951 8.67429 48.0951 8.43441C48.215 8.19454 48.335 7.95466 48.5749 7.83472C48.6948 7.71479 48.9347 7.59485 49.1746 7.59485C49.4144 7.59485 49.6543 7.71479 49.7742 7.83472C50.0141 7.95466 50.134 8.19454 50.134 8.43441C50.254 8.67429 50.254 8.91416 50.3739 9.15404V10.7132H47.8552V10.1135ZM49.1746 18.5092C50.3739 18.5092 51.3334 18.1494 51.9331 17.4297C52.5328 16.8301 52.8926 15.7506 52.8926 14.4313H50.3739V15.1509C50.3739 15.3908 50.254 15.6307 50.134 15.8705C50.134 15.9905 50.0141 16.2304 49.7742 16.2304C49.6543 16.3503 49.4144 16.4702 49.1746 16.4702C48.9347 16.4702 48.8147 16.3503 48.5749 16.2304C48.4549 16.2304 48.335 15.9905 48.215 15.8705C48.215 15.7506 48.0951 15.5107 48.0951 15.2709C47.9752 15.031 47.9752 14.7911 47.9752 14.5512C47.9752 14.3114 47.8552 14.0715 47.8552 13.8316V12.0325H52.8926V10.1135C52.8926 9.63379 52.7727 9.15404 52.6527 8.67429C52.6527 8.0746 52.4129 7.71479 52.2929 7.35497C52.0531 6.99516 51.9331 6.63535 51.5733 6.39547C51.3334 6.1556 50.9736 5.91572 50.6138 5.79578C50.1341 5.67585 49.6543 5.55591 49.1746 5.55591C48.5749 5.55591 48.0951 5.67585 47.6154 5.79578C47.1356 6.03566 46.7758 6.27553 46.5359 6.63535C46.296 6.87522 46.0562 7.23504 45.9362 7.71479C45.6964 8.19454 45.5764 8.67429 45.5764 9.27398C45.4565 9.75373 45.4565 10.3534 45.3365 10.9531V12.6322C45.4565 13.3519 45.4565 13.9515 45.4565 14.4313C45.5764 15.031 45.6964 15.5107 45.8163 16.1104C46.0562 16.5902 46.1761 17.0699 46.5359 17.3098C46.7758 17.6696 47.1356 17.9095 47.6154 18.1494C47.9752 18.3892 48.5749 18.5092 49.1746 18.5092Z" fill="white"/>
<path d="M32.0235 39.6183C32.0235 40.098 31.5437 40.8177 30.7042 40.8177C29.8646 40.8177 29.5048 40.098 29.5048 39.0186C29.5048 38.7787 29.5048 38.5388 29.6247 38.299C29.6247 38.0591 29.7447 37.9392 29.8646 37.8192C29.9845 37.5793 30.1045 37.4594 30.3443 37.3395C30.5842 37.0996 30.7042 36.9797 30.8241 36.8597C31.064 36.7398 31.1839 36.6198 31.4238 36.4999C31.6637 36.38 31.9035 36.26 32.0235 36.1401V39.6183ZM33.4627 30.7429C32.863 30.0233 31.9035 29.6635 30.7042 29.6635C29.5048 29.6635 28.6652 30.0233 27.9456 30.7429C27.3459 31.4625 26.9861 32.422 26.9861 33.6214H29.5048V33.3815C29.5048 32.7818 29.6247 32.422 29.7447 32.0622C29.9845 31.8223 30.3443 31.7024 30.7042 31.7024C31.1839 31.7024 31.5437 31.8223 31.6637 32.1821C31.9035 32.542 32.0235 33.0217 32.0235 33.6214V34.5809C31.9035 34.5809 31.7836 34.5809 31.6637 34.7008C31.064 34.9407 30.5842 35.1806 30.2244 35.3005C29.9845 35.4205 29.6247 35.5404 29.025 35.9002C28.5453 36.26 28.1855 36.4999 27.9456 36.8597C27.7057 37.0996 27.4658 37.5793 27.226 38.0591C27.106 38.5388 26.9861 39.1385 26.9861 39.7382C26.9861 40.4578 27.226 41.1775 27.7057 41.7772C28.1855 42.3768 28.6652 42.6167 29.7447 42.6167C31.3038 42.6167 31.9035 41.8971 32.0235 41.6572V42.4968H34.5422V33.6214C34.5422 32.542 34.1823 31.5825 33.4627 30.7429Z" fill="white"/>
<path d="M42.8178 63.8457C42.8178 64.3254 42.338 65.0451 41.4985 65.0451C40.6589 65.0451 40.2991 64.2055 40.2991 63.246C40.2991 62.8862 40.2991 62.7663 40.419 62.5264C40.419 62.2865 40.539 62.0466 40.6589 61.9267C40.7788 61.8068 40.8988 61.5669 41.1386 61.4469C41.3785 61.327 41.4985 61.0871 41.6184 61.0871C41.8583 60.9672 41.9782 60.8473 42.2181 60.7273C42.458 60.4874 42.6978 60.3675 42.8178 60.3675V63.8457ZM44.257 54.9703C43.6573 54.2507 42.6978 53.8909 41.4985 53.8909C40.2991 53.8909 39.4595 54.2507 38.7399 54.9703C38.1402 55.6899 37.7804 56.6494 37.7804 57.8488H40.2991V57.489C40.2991 57.0092 40.419 56.5295 40.539 56.2896C40.7788 55.9298 41.1386 55.8099 41.4985 55.8099C41.9782 55.8099 42.338 56.0497 42.458 56.4096C42.6978 56.6494 42.8178 57.2491 42.8178 57.8488V58.6884C42.6978 58.8083 42.5779 58.8083 42.458 58.8083C41.8583 59.1681 41.3785 59.2881 41.0187 59.408C40.7788 59.5279 40.419 59.7678 39.8193 60.1276C39.3396 60.3675 38.9798 60.7273 38.7399 60.9672C38.5 61.327 38.2601 61.6868 38.0203 62.1666C37.7804 62.6463 37.7804 63.246 37.7804 63.8457C37.7804 64.5653 38.0203 65.285 38.5 65.8846C38.9798 66.4843 39.4595 66.8441 40.539 66.8441C42.0982 66.8441 42.6978 66.1245 42.8178 65.8846V66.6043H45.3365V57.8488C45.3365 56.6494 44.9767 55.6899 44.257 54.9703Z" fill="white"/>
<path d="M39.8194 32.542C39.9393 32.3021 40.1792 32.1821 40.1792 32.1821C40.2991 32.0622 40.539 31.9423 40.6589 31.9423C40.8988 31.8223 41.1387 31.8223 41.3785 31.8223C41.7384 31.8223 41.9782 31.8223 42.0982 32.0622C42.2181 32.3021 42.3381 32.542 42.3381 33.0217V42.4968H44.8567V31.7024C44.8567 31.2226 44.6169 30.7429 44.2571 30.2631C44.0172 29.9033 43.5374 29.6635 43.0577 29.6635C42.5779 29.6635 42.0982 29.7834 41.6184 29.9033C41.2586 30.1432 40.8988 30.2631 40.6589 30.503C40.419 30.623 40.1792 30.8628 39.8194 31.2226V29.9033H37.3007V42.4968H39.8194V32.542Z" fill="white"/>
<path d="M49.8942 34.341V33.2616C49.8942 33.0217 50.0141 32.9018 50.0141 32.7818C50.0141 32.6619 50.134 32.542 50.134 32.422C50.214 32.2621 50.294 32.1422 50.3739 32.0622C50.4939 31.9423 50.6138 31.9423 50.7337 31.8223H51.5733C51.7332 31.9023 51.8532 31.9822 51.9331 32.0622C52.0531 32.1821 52.173 32.1821 52.173 32.422C52.2929 32.542 52.2929 32.6619 52.2929 32.7818C52.2929 32.9018 52.4129 33.0217 52.4129 33.2616V39.1385C52.4129 39.3784 52.2929 39.4983 52.2929 39.6183C52.2929 39.7382 52.2929 39.8582 52.173 39.9781C52.173 40.098 52.0531 40.218 51.9331 40.3379C51.8132 40.3379 51.8132 40.4578 51.5733 40.4578C51.4534 40.5778 51.3334 40.5778 51.2135 40.5778C50.9736 40.5778 50.8537 40.5778 50.7337 40.4578C50.6138 40.4578 50.4939 40.3379 50.3739 40.3379C50.254 40.218 50.254 40.098 50.134 39.9781C50.134 39.8582 50.0141 39.7382 50.0141 39.6183C50.0141 39.4983 49.8942 39.3784 49.8942 39.1385V34.341ZM51.2135 42.6167C52.5328 42.6167 53.4923 42.2569 54.092 41.4173C54.6917 40.6977 54.9316 39.4983 54.9316 38.0591V34.341C54.9316 32.7818 54.6917 31.7024 54.092 30.8628C53.4923 30.1432 52.5328 29.6635 51.2135 29.6635C49.7742 29.6635 48.8147 30.1432 48.215 30.8628C47.6154 31.7024 47.3755 32.7818 47.3755 34.341V38.0591C47.3755 39.4983 47.6154 40.6977 48.215 41.4173C48.8147 42.2569 49.7742 42.6167 51.2135 42.6167Z" fill="white"/>
<path d="M60.9285 40.5778C60.0889 40.5778 59.4892 39.9781 59.0095 38.6588L57.0905 39.3784C57.3303 40.3379 57.8101 41.0575 58.4098 41.7772C59.0095 42.3768 59.849 42.6167 60.9285 42.6167C62.0079 42.6167 62.9674 42.3768 63.687 41.7772C64.2867 41.1775 64.6465 40.4578 64.6465 39.3784C64.6465 38.8987 64.6465 38.5388 64.5266 38.299C64.4067 37.9392 64.2867 37.5793 64.0468 37.3395C63.9269 37.0996 63.687 36.8597 63.5671 36.6198C63.3272 36.38 63.0873 36.26 62.8475 36.0202L60.3288 34.1011C59.849 33.7413 59.6091 33.3815 59.6091 33.0217C59.6091 32.6619 59.7291 32.3021 59.969 32.0622C60.2088 31.9423 60.4487 31.8223 60.9285 31.8223C61.1683 31.8223 61.4082 31.8223 61.6481 31.9423C61.768 32.0622 62.0079 32.1821 62.1278 32.422C62.2478 32.6619 62.3677 32.9018 62.4876 33.0217C62.6076 33.2616 62.7275 33.3815 62.8475 33.6214L64.6465 33.0217C64.5266 32.542 64.4067 32.1821 64.1668 31.7024C64.0468 31.3426 63.807 30.9828 63.4472 30.7429C63.2073 30.3831 62.8475 30.1432 62.3677 30.0233C61.888 29.7834 61.4082 29.6635 60.9285 29.6635C59.7291 29.6635 58.8895 30.0233 58.1699 30.623C57.4503 31.1027 57.0905 31.9423 57.0905 33.0217C57.0905 33.3815 57.2104 33.7413 57.3303 33.9812C57.3303 34.341 57.5702 34.5809 57.6901 34.8208C57.93 35.0606 58.1699 35.3005 58.2898 35.4205C58.5297 35.6603 58.7696 35.7803 59.0095 36.0202L61.5282 37.8192C62.0079 38.299 62.1278 38.7787 62.1278 39.3784C62.1278 39.7382 62.0079 40.098 61.888 40.218C61.6481 40.4578 61.2883 40.5778 60.9285 40.5778Z" fill="white"/>
<path fill-rule="evenodd" clip-rule="evenodd" d="M75.9207 29.7835H78.5593V42.4968H75.9207V29.7835ZM75.9207 25.4657H78.5593V28.1043H75.9207V25.4657Z" fill="white"/>
<path d="M83.8366 34.2211C83.8366 33.8613 83.8366 33.6214 83.9565 33.3815C83.9565 33.1416 83.9565 32.7818 84.0764 32.542C84.1964 32.3021 84.3163 32.1821 84.4362 31.9423C84.6761 31.8223 84.916 31.8223 85.1559 31.8223C85.3957 31.8223 85.6356 31.8223 85.7556 31.9423C85.8755 32.0622 85.9954 32.3021 86.1154 32.542C86.2353 32.7818 86.2353 33.0217 86.3552 33.2616V34.9407H83.8366V34.2211ZM87.9144 41.6572C88.5141 40.9376 88.8739 39.8582 88.8739 38.5388L86.3552 38.6588V39.3784C86.2353 39.6183 86.2353 39.7382 86.1154 39.9781C86.1154 40.218 85.9954 40.3379 85.7556 40.4578C85.6356 40.5778 85.3957 40.5778 85.1559 40.5778C84.916 40.5778 84.6761 40.5778 84.5562 40.4578C84.4362 40.3379 84.3163 40.218 84.1964 40.098C84.0764 39.8582 84.0764 39.6183 83.9565 39.4983C83.9565 39.2585 83.9565 39.0186 83.8366 38.7787V36.1401H88.8739V34.2211C88.754 33.7413 88.754 33.2616 88.6341 32.7818C88.5141 32.3021 88.3942 31.8223 88.2742 31.4625C88.0344 31.2226 87.7945 30.8628 87.5546 30.623C87.3147 30.2631 86.9549 30.0233 86.5951 29.9033C86.1154 29.7834 85.6356 29.6635 85.1559 29.6635C84.5562 29.6635 84.0764 29.7834 83.5967 30.0233C83.1169 30.1432 82.7571 30.3831 82.5172 30.7429C82.2774 31.1027 82.0375 31.4625 81.7976 31.9423C81.6777 32.422 81.5577 32.9018 81.4378 33.3815C81.4378 33.8613 81.3179 34.461 81.3179 35.1806V36.7398C81.3179 37.4594 81.4378 38.0591 81.4378 38.6588C81.5577 39.1385 81.6777 39.7382 81.7976 40.218C81.9176 40.6977 82.1574 41.1775 82.3973 41.5373C82.7571 41.8971 83.1169 42.137 83.4767 42.3768C83.9565 42.4968 84.4362 42.6167 85.1559 42.6167C86.3553 42.6167 87.3147 42.2569 87.9144 41.6572Z" fill="white"/>
<path d="M95.4704 31.8223C95.8302 31.8223 96.0701 31.8223 96.19 32.0622C96.31 32.3021 96.31 32.542 96.31 33.0217V42.4968H98.8287V31.7024C98.8287 31.2226 98.7087 30.7429 98.3489 30.2631C97.9891 29.9033 97.6293 29.6635 97.0296 29.6635C96.5499 29.6635 96.19 29.7834 95.7103 29.9033C95.3505 30.1432 94.9907 30.2631 94.7508 30.503C94.5109 30.623 94.1511 30.8628 93.7913 31.2226V29.9033H91.2726V42.4968H93.7913V32.542C94.0312 32.3021 94.1511 32.1821 94.271 32.1821C94.391 32.0622 94.5109 31.9423 94.7508 31.9423C94.9907 31.8223 95.2305 31.8223 95.4704 31.8223Z" fill="white"/>
<path d="M107.704 41.5373C107.944 41.0575 108.184 40.6977 108.304 40.098C108.544 39.6183 108.544 39.0186 108.544 38.4189H106.025V39.6183C105.905 39.8582 105.905 39.9781 105.785 40.098C105.665 40.218 105.545 40.3379 105.425 40.4578C105.185 40.5778 105.065 40.5778 104.826 40.5778C104.586 40.5778 104.346 40.5778 104.226 40.3379C103.986 40.218 103.866 40.098 103.866 39.7382C103.746 39.4983 103.626 39.2585 103.626 39.0186C103.626 38.7787 103.506 38.4189 103.506 38.0591V34.341C103.506 33.9812 103.626 33.6214 103.626 33.3815C103.626 33.1416 103.746 32.7818 103.746 32.542C103.866 32.3021 103.986 32.0622 104.226 31.9423C104.346 31.7024 104.586 31.7024 104.826 31.7024C105.065 31.7024 105.305 31.7024 105.425 31.8223C105.665 31.9423 105.785 32.1821 105.785 32.422C105.905 32.6619 106.025 32.9018 106.025 33.1416V33.9812H108.544C108.544 32.542 108.304 31.4625 107.704 30.7429C107.104 30.0233 106.145 29.6635 104.826 29.6635C104.226 29.6635 103.626 29.7834 103.266 30.0233C102.787 30.2631 102.427 30.503 102.187 30.8628C101.947 31.1027 101.707 31.5825 101.467 32.0622C101.347 32.542 101.227 33.0217 101.227 33.6214C101.108 34.1011 101.108 34.7008 101.108 35.3005C100.988 35.9002 100.988 36.4999 101.108 36.9797C101.108 37.6993 101.108 38.299 101.227 38.7787C101.227 39.2585 101.347 39.7382 101.467 40.3379C101.707 40.8177 101.947 41.1775 102.187 41.5373C102.427 41.8971 102.787 42.137 103.266 42.3768C103.626 42.4968 104.226 42.6167 104.826 42.6167C105.425 42.6167 106.025 42.4968 106.505 42.3768C106.984 42.137 107.464 41.8971 107.704 41.5373Z" fill="white"/>
<path d="M113.101 34.2211V33.3815C113.221 33.1416 113.221 32.7818 113.341 32.542C113.341 32.3021 113.581 32.1821 113.701 31.9423C113.821 31.8223 114.061 31.8223 114.301 31.8223C114.541 31.8223 114.78 31.8223 115.02 31.9423C115.14 32.0622 115.26 32.3021 115.38 32.542C115.38 32.7818 115.5 33.0217 115.5 33.2616C115.5 33.5015 115.62 33.8613 115.62 34.2211V34.9407H113.101V34.2211ZM117.059 41.6572C117.659 40.9376 118.019 39.8582 118.139 38.5388L115.62 38.6588C115.62 38.8987 115.62 39.1385 115.5 39.3784C115.5 39.6183 115.5 39.7382 115.38 39.9781C115.26 40.218 115.14 40.3379 115.02 40.4578C114.78 40.5778 114.661 40.5778 114.301 40.5778C114.181 40.5778 113.941 40.5778 113.821 40.4578C113.701 40.3379 113.581 40.218 113.461 40.098C113.341 39.8582 113.341 39.6183 113.221 39.4983C113.221 39.2585 113.101 39.0186 113.101 38.7787V36.1401H118.139V35.9002C118.139 35.3005 118.139 34.7008 118.019 34.2211C118.019 33.7413 118.019 33.2616 117.899 32.7818C117.779 32.3021 117.659 31.8223 117.419 31.4625C117.299 31.2226 117.059 30.8628 116.819 30.623C116.46 30.2631 116.22 30.0233 115.74 29.9033C115.38 29.7834 114.9 29.6635 114.301 29.6635C113.701 29.6635 113.221 29.7834 112.742 30.0233C112.382 30.1432 112.022 30.3831 111.782 30.7429C111.422 31.1027 111.182 31.4625 111.062 31.9423C110.942 32.422 110.823 32.9018 110.703 33.3815C110.583 33.8613 110.583 34.461 110.583 35.1806V36.7398C110.583 37.4594 110.583 38.0591 110.703 38.6588C110.703 39.1385 110.823 39.7382 111.062 40.218C111.182 40.6977 111.422 41.1775 111.662 41.5373C111.902 41.8971 112.262 42.137 112.742 42.3768C113.221 42.4968 113.701 42.6167 114.301 42.6167C115.62 42.6167 116.46 42.2569 117.059 41.6572Z" fill="white"/>
<path d="M127.614 39.3784C127.614 38.8987 127.614 38.5388 127.494 38.299C127.374 37.9392 127.254 37.5793 127.014 37.3395C126.894 37.0996 126.654 36.8597 126.414 36.6198C126.294 36.38 126.055 36.26 125.695 36.0202L123.176 34.1011C122.816 33.7413 122.576 33.3815 122.576 33.0217C122.576 32.6619 122.696 32.3021 122.936 32.0622C123.176 31.9423 123.416 31.8223 123.896 31.8223C124.136 31.8223 124.375 31.8223 124.495 31.9423C124.735 32.0622 124.975 32.1821 125.095 32.422C125.215 32.6619 125.335 32.9018 125.455 33.0217C125.575 33.2616 125.695 33.3815 125.695 33.6214L127.614 33.0217C127.494 32.542 127.374 32.1821 127.134 31.7024C127.014 31.3426 126.774 30.9828 126.414 30.7429C126.175 30.3831 125.815 30.1432 125.335 30.0233C124.855 29.7834 124.375 29.6635 123.896 29.6635C122.696 29.6635 121.737 30.0233 121.137 30.623C120.418 31.1027 120.058 31.9423 120.058 33.0217C120.058 33.3815 120.178 33.7413 120.178 33.9812C120.298 34.341 120.418 34.5809 120.657 34.8208C120.897 35.0606 121.017 35.3005 121.257 35.4205C121.497 35.6603 121.617 35.7803 121.977 36.0202L124.495 37.8192C124.855 38.299 125.095 38.7787 125.095 39.3784C125.095 39.7382 124.975 40.098 124.735 40.218C124.495 40.4578 124.256 40.5778 123.896 40.5778C123.056 40.5778 122.456 39.9781 121.977 38.6588L120.058 39.3784C120.298 40.3379 120.777 41.0575 121.377 41.7772C121.977 42.3768 122.816 42.6167 123.896 42.6167C124.975 42.6167 125.935 42.3768 126.534 41.7772C127.254 41.1775 127.614 40.4578 127.614 39.3784Z" fill="white"/>
<path d="M53.8521 53.8909C53.3723 53.8909 52.8926 54.0108 52.4129 54.1307C52.053 54.2507 51.6932 54.4906 51.4533 54.6105C51.2135 54.8504 50.9736 55.0902 50.6138 55.4501V54.0108H48.0951V66.6043H50.6138V56.6494C50.7337 56.5295 50.9736 56.4096 50.9736 56.2896C51.0935 56.2896 51.3334 56.1697 51.4533 56.0497C51.6932 55.9298 51.9331 55.9298 52.173 55.9298C52.5328 55.9298 52.7727 56.0497 52.8926 56.2896C53.0125 56.4096 53.1325 56.7694 53.1325 57.2491V66.6043H55.6512V55.9298C55.6512 55.3301 55.4113 54.8504 55.0515 54.4906C54.8116 54.1307 54.3318 53.8909 53.8521 53.8909Z" fill="white"/>
<path d="M63.2072 62.2865V63.246C63.2072 63.4859 63.0872 63.6058 63.0872 63.7258C63.0872 63.8457 63.0872 63.9656 62.9673 64.2055C62.9673 64.3254 62.8474 64.4454 62.7274 64.4454C62.6475 64.5253 62.5275 64.6053 62.3676 64.6853C62.2477 64.6853 62.1277 64.8052 62.0078 64.8052C61.7679 64.8052 61.648 64.6853 61.5281 64.6853C61.4081 64.5653 61.2882 64.5653 61.1682 64.4454C61.0483 64.4454 60.9284 64.3254 60.9284 64.2055C60.8084 63.9656 60.8084 63.8457 60.8084 63.7258C60.8084 63.6058 60.6885 63.4859 60.6885 63.246V57.3691C60.6885 57.2491 60.8084 57.0092 60.8084 56.8893C60.8084 56.7694 60.8084 56.6494 60.9284 56.5295C60.9284 56.4096 61.0483 56.2896 61.1682 56.1697C61.2882 56.1697 61.4081 56.0497 61.5281 56.0497C61.648 55.9298 61.7679 55.9298 62.0078 55.9298C62.1277 55.9298 62.2477 55.9298 62.3676 56.0497C62.6075 56.0497 62.6075 56.1697 62.7274 56.1697C62.8474 56.2896 62.9673 56.4096 62.9673 56.5295C63.0872 56.6494 63.0872 56.7694 63.0872 56.8893C63.0872 57.0092 63.2072 57.2491 63.2072 57.3691V62.2865ZM62.0078 53.8909C60.5685 53.8909 59.609 54.2507 59.0094 55.0902C58.4097 55.8099 58.1698 57.0092 58.1698 58.4485V62.2865C58.1698 63.7258 58.4097 64.8052 59.0094 65.6448C59.609 66.3644 60.5685 66.8441 62.0078 66.8441C63.3271 66.8441 64.2866 66.3644 64.8863 65.6448C65.486 64.8052 65.7259 63.7258 65.7259 62.2865V58.4485C65.7259 57.0092 65.486 55.8099 64.8863 55.0902C64.2866 54.2507 63.3271 53.8909 62.0078 53.8909Z" fill="white"/>
<path d="M71.6029 49.6931H69.0842V54.0109H67.7649V55.9299H69.0842V63.7258C69.0842 64.8053 69.3241 65.5249 69.6839 66.0046C70.1636 66.6043 70.8833 66.8442 71.8428 66.8442C72.3225 66.8442 72.8023 66.7243 73.402 66.7243V64.6853C73.0422 64.6853 72.8023 64.8053 72.5624 64.8053C72.2026 64.8053 71.8428 64.6853 71.7228 64.4455C71.6029 64.2056 71.6029 63.8458 71.6029 63.2461V55.9299H73.402V54.0109H71.6029V49.6931Z" fill="white"/>
<path d="M80.5982 59.0482H78.0795V58.4485C78.0795 58.0887 78.1994 57.7289 78.1994 57.489C78.1994 57.2491 78.3194 57.0092 78.3194 56.7694C78.4393 56.5295 78.5592 56.2896 78.7991 56.1697C78.9191 56.0497 79.1589 55.9298 79.3988 55.9298C79.6387 55.9298 79.8786 56.0497 79.9985 56.1697C80.2384 56.2896 80.3583 56.4096 80.3583 56.6494C80.4782 57.0092 80.4782 57.2491 80.5982 57.489V59.0482ZM82.877 56.8893C82.877 56.4096 82.6371 56.0497 82.5172 55.6899C82.2773 55.3301 82.1574 54.9703 81.7976 54.7304C81.5577 54.4906 81.1979 54.2507 80.838 54.1307C80.3583 53.8909 79.8786 53.8909 79.3988 53.8909C78.7991 53.8909 78.3194 54.0108 77.8396 54.1307C77.3599 54.3706 77.0001 54.6105 76.7602 54.8504C76.5203 55.2102 76.2804 55.57 76.1605 56.0497C75.9206 56.5295 75.8007 57.0092 75.8007 57.6089C75.6807 58.0887 75.6807 58.6884 75.5608 59.2881V60.9672C75.6807 61.6868 75.6807 62.2865 75.6807 62.7663C75.8007 63.3659 75.9206 63.8457 76.0406 64.3255C76.2804 64.9251 76.4004 65.285 76.7602 65.6448C77.0001 66.0046 77.3599 66.2445 77.8396 66.4843C78.1994 66.7242 78.7991 66.8441 79.3988 66.8441C80.5982 66.8441 81.5577 66.4843 82.1574 65.7647C82.7571 65.0451 83.1169 64.0856 83.1169 62.7663H80.5982V63.4859C80.5982 63.7258 80.4782 63.9656 80.3583 64.0856C80.3583 64.3254 80.2384 64.4454 79.9985 64.5653C79.8786 64.6853 79.6387 64.8052 79.3988 64.8052C79.1589 64.8052 79.039 64.6853 78.7991 64.5653L78.4393 64.2055C78.4393 64.0856 78.3194 63.8457 78.3194 63.6058C78.1994 63.3659 78.1994 63.1261 78.1994 62.8862C78.1994 62.6463 78.0795 62.4064 78.0795 62.1666V60.3675H83.1169V58.4485C83.1169 57.9687 82.9969 57.489 82.877 56.8893Z" fill="white"/>
<path d="M68.7244 33.3815C68.8443 33.1416 68.8443 32.7818 68.9643 32.542C69.0842 32.3021 69.2041 32.0622 69.3241 31.9423C69.564 31.7024 69.6839 31.7024 69.9238 31.7024C70.1636 31.7024 70.4035 31.7024 70.6434 31.8223C70.7633 31.9423 70.8833 32.1821 71.0032 32.422C71.0032 32.6619 71.1231 32.9018 71.1231 33.1416C71.2431 33.3815 71.2431 33.6214 71.2431 33.9812H73.7618C73.6418 32.542 73.402 31.4625 72.8023 30.7429C72.2026 30.0233 71.2431 29.6635 69.9238 29.6635C69.3241 29.6635 68.8443 29.7834 68.3646 30.0233C67.8848 30.2631 67.525 30.503 67.2851 30.8628C67.0453 31.1027 66.8054 31.5825 66.6855 32.0622C66.4456 32.542 66.3256 33.0217 66.3256 33.6214C66.2057 34.1011 66.2057 34.7008 66.2057 35.3005V36.9797C66.2057 37.6993 66.2057 38.299 66.3256 38.7787C66.3256 39.2585 66.4456 39.7382 66.6855 40.3379C66.8054 40.8177 67.0453 41.1775 67.2851 41.5373C67.525 41.8971 67.8848 42.137 68.3646 42.3768C68.8443 42.4968 69.3241 42.6167 69.9238 42.6167C70.6434 42.6167 71.2431 42.4968 71.7228 42.3768C72.2026 42.137 72.5624 41.8971 72.8023 41.5373C73.1621 41.0575 73.402 40.6977 73.5219 40.098C73.6418 39.6183 73.7618 39.0186 73.7618 38.4189H71.2431V39.0186C71.2431 39.2585 71.1231 39.3784 71.1231 39.6183C71.0032 39.8582 71.0032 39.9781 70.8833 40.098C70.7633 40.218 70.6434 40.3379 70.5235 40.4578C70.4035 40.5778 70.1636 40.5778 69.9238 40.5778C69.6839 40.5778 69.564 40.5778 69.3241 40.3379C69.2041 40.218 69.0842 40.098 68.9643 39.8582C68.8443 39.4983 68.8443 39.2585 68.7244 39.0186V38.0591C68.6044 36.38 68.6044 35.1806 68.7244 34.341V33.3815Z" fill="white"/>
<path d="M87.5545 57.489C87.5545 57.2491 87.6745 57.0092 87.6745 56.6494C87.7944 56.4096 87.9143 56.1697 88.1542 56.0497C88.2742 55.9298 88.514 55.8099 88.7539 55.8099C88.9938 55.8099 89.2337 55.9298 89.3536 56.0497C89.5935 56.1697 89.7134 56.2896 89.7134 56.5295C89.8333 56.7694 89.8333 57.0092 89.9533 57.2491V58.0887H92.472C92.472 56.7694 92.1122 55.6899 91.6324 54.9703C91.0327 54.2507 90.0732 53.8909 88.7539 53.8909C88.1542 53.8909 87.5545 54.0108 87.1947 54.1307C86.715 54.3706 86.3551 54.6105 86.1153 54.9703C85.7555 55.3301 85.6355 55.6899 85.3957 56.1697C85.2757 56.7694 85.1558 57.2491 85.0358 57.7289C85.0358 58.2086 85.0358 58.8083 84.9159 59.5279V61.2071C85.0358 61.8068 85.0358 62.4064 85.0358 62.8862C85.1558 63.4859 85.2757 63.9656 85.3957 64.4454C85.6355 64.9251 85.7555 65.4049 86.1153 65.7647C86.3551 66.0046 86.715 66.3644 87.1947 66.4843C87.5545 66.7242 88.1542 66.8441 88.7539 66.8441C89.3536 66.8441 89.9533 66.7242 90.433 66.4843C90.9128 66.3644 91.2726 66.0046 91.6324 65.6448C91.8723 65.285 92.1122 64.8052 92.2321 64.3255C92.352 63.8457 92.472 63.246 92.472 62.5264H89.9533V63.246C89.9533 63.3659 89.9533 63.6058 89.8333 63.8457C89.8333 63.9656 89.7134 64.2055 89.7134 64.3255C89.5935 64.4454 89.4735 64.5653 89.3536 64.5653C89.1137 64.6853 88.9938 64.8052 88.7539 64.8052C88.514 64.8052 88.2742 64.6853 88.1542 64.5653C87.9143 64.4454 87.7944 64.2055 87.6745 63.9656C87.6745 63.7258 87.5545 63.4859 87.5545 63.1261C87.4346 62.8862 87.4346 62.5264 87.4346 62.1666V58.5684C87.4346 58.2086 87.4346 57.8488 87.5545 57.489Z" fill="white"/>
<path d="M100.388 53.8908C99.9081 53.8908 99.5483 54.0108 99.0686 54.1307C98.7087 54.2506 98.3489 54.4905 98.109 54.6105C97.8692 54.8503 97.5094 55.0902 97.1496 55.45V48.9734H94.6309V66.6042H97.1496V56.6494C97.7492 56.1697 98.3489 55.9298 98.8287 55.9298C99.1885 55.9298 99.4284 56.0497 99.5483 56.2896C99.6682 56.4095 99.6683 56.7693 99.6683 57.2491V66.6042H102.187V55.9298C102.187 55.3301 102.067 54.8503 101.707 54.4905C101.347 54.1307 100.988 53.8908 100.388 53.8908Z" fill="white"/>
<path d="M110.822 53.8909C110.343 53.8909 109.863 54.0108 109.383 54.1307C109.023 54.2507 108.664 54.4906 108.424 54.6105C108.184 54.8504 107.944 55.0902 107.584 55.4501V54.0108H105.065V66.6043H107.584V56.6494C107.704 56.5295 107.944 56.4096 107.944 56.2896C108.064 56.2896 108.304 56.1697 108.424 56.0497C108.664 55.9298 108.903 55.9298 109.143 55.9298C109.503 55.9298 109.743 56.0497 109.863 56.2896C109.983 56.4096 110.103 56.7694 110.103 57.2491V66.6043H112.622V55.9298C112.622 55.3301 112.382 54.8504 112.022 54.4906C111.782 54.1307 111.302 53.8909 110.822 53.8909Z" fill="white"/>
<path d="M120.178 62.2865V63.246C120.178 63.4859 120.178 63.6058 120.058 63.7258C120.058 63.8457 120.058 63.9656 119.938 64.2055C119.938 64.3254 119.818 64.4454 119.698 64.4454C119.698 64.5653 119.578 64.5653 119.338 64.6853C119.218 64.6853 119.098 64.8052 118.978 64.8052C118.738 64.8052 118.618 64.6853 118.499 64.6853C118.379 64.5653 118.259 64.5653 118.139 64.4454C118.019 64.4454 118.019 64.3254 117.899 64.2055C117.899 63.9656 117.779 63.8457 117.779 63.7258C117.779 63.6058 117.659 63.4859 117.659 63.246V57.3691C117.659 57.2491 117.779 57.0092 117.779 56.8893C117.779 56.7694 117.899 56.6494 117.899 56.5295C118.019 56.4096 118.019 56.2896 118.139 56.1697C118.259 56.1697 118.379 56.0497 118.499 56.0497C118.618 55.9298 118.738 55.9298 118.978 55.9298C119.098 55.9298 119.218 55.9298 119.338 56.0497C119.578 56.0497 119.698 56.1697 119.698 56.1697C119.818 56.2896 119.938 56.4096 119.938 56.5295C120.058 56.6494 120.058 56.7694 120.058 56.8893C120.178 57.0092 120.178 57.2491 120.178 57.3691V62.2865ZM118.978 53.8909C117.539 53.8909 116.58 54.2507 115.98 55.0902C115.5 55.8099 115.14 57.0092 115.14 58.4485V62.2865C115.14 63.7258 115.5 64.8052 115.98 65.6448C116.58 66.3644 117.539 66.8441 118.978 66.8441C120.298 66.8441 121.257 66.3644 121.857 65.6448C122.456 64.8052 122.696 63.7258 122.696 62.2865V58.4485C122.696 57.0092 122.456 55.8099 121.857 55.0902C121.257 54.2507 120.298 53.8909 118.978 53.8909Z" fill="white"/>
<path d="M127.974 48.9734H125.335V66.7242H127.974V48.9734Z" fill="white"/>
<path d="M135.53 62.2865V63.246C135.53 63.4859 135.53 63.6058 135.41 63.7258C135.41 63.8457 135.41 63.9656 135.29 64.2055C135.29 64.3254 135.17 64.4454 135.05 64.4454C135.05 64.5653 134.93 64.5653 134.81 64.6853C134.57 64.6853 134.45 64.8052 134.33 64.8052C134.09 64.8052 133.971 64.6853 133.851 64.6853C133.731 64.5653 133.611 64.5653 133.491 64.4454C133.371 64.4454 133.371 64.3254 133.251 64.2055C133.251 63.9656 133.131 63.8457 133.131 63.7258C133.131 63.6058 133.011 63.4859 133.011 63.246V57.3691C133.011 57.2491 133.131 57.0092 133.131 56.8893C133.131 56.7694 133.251 56.6494 133.251 56.5295C133.371 56.4096 133.371 56.2896 133.491 56.1697C133.611 56.1697 133.731 56.0497 133.851 56.0497C133.971 55.9298 134.09 55.9298 134.33 55.9298C134.45 55.9298 134.57 55.9298 134.81 56.0497C134.93 56.0497 135.05 56.1697 135.05 56.1697C135.17 56.2896 135.29 56.4096 135.29 56.5295C135.41 56.6494 135.41 56.7694 135.41 56.8893C135.53 57.0092 135.53 57.2491 135.53 57.3691V62.2865ZM134.33 53.8909C132.891 53.8909 131.932 54.2507 131.332 55.0902C130.852 55.8099 130.492 57.0092 130.492 58.4485V62.2865C130.492 63.7258 130.852 64.8052 131.332 65.6448C131.932 66.3644 132.891 66.8441 134.33 66.8441C135.65 66.8441 136.609 66.3644 137.209 65.6448C137.809 64.8052 138.048 63.7258 138.048 62.2865V58.4485C138.048 57.0092 137.809 55.8099 137.209 55.0902C136.609 54.2507 135.65 53.8909 134.33 53.8909Z" fill="white"/>
<path fill-rule="evenodd" clip-rule="evenodd" d="M150.522 49.5731H153.16V52.2117H150.522V49.5731ZM150.522 54.0108H153.16V66.7242H150.522V54.0108Z" fill="white"/>
<path d="M160.836 59.0482H158.438V57.489C158.438 57.2491 158.558 57.0092 158.558 56.7694C158.678 56.5295 158.798 56.2896 159.037 56.1697C159.157 56.0497 159.397 55.9298 159.637 55.9298C159.877 55.9298 160.117 56.0497 160.237 56.1697C160.477 56.2896 160.597 56.4096 160.597 56.6494C160.717 57.0092 160.836 57.2491 160.836 57.489V59.0482ZM163.115 56.8893C163.115 56.4096 162.995 56.0497 162.755 55.6899C162.636 55.3301 162.396 54.9703 162.036 54.7304C161.796 54.4906 161.436 54.2507 161.076 54.1307C160.597 53.8909 160.237 53.8909 159.637 53.8909C159.037 53.8909 158.558 54.0108 158.078 54.1307C157.598 54.3706 157.238 54.6105 156.998 54.8504C156.759 55.2102 156.519 55.57 156.399 56.0497C156.159 56.5295 156.039 57.0092 156.039 57.6089C155.919 58.0887 155.919 58.6884 155.919 59.2881C155.799 59.8878 155.799 60.3675 155.919 60.9672C155.919 61.6868 155.919 62.2865 156.039 62.7663C156.039 63.3659 156.159 63.8457 156.279 64.3255C156.519 64.9251 156.639 65.285 156.998 65.6448C157.238 66.0046 157.598 66.2445 158.078 66.4843C158.438 66.7242 159.037 66.8441 159.637 66.8441C160.837 66.8441 161.796 66.4843 162.396 65.7647C162.995 65.0451 163.355 64.0856 163.355 62.7663H160.956C160.836 63.1261 160.836 63.3659 160.836 63.4859C160.836 63.7258 160.717 63.9656 160.717 64.0856C160.597 64.3254 160.477 64.4454 160.237 64.5653C160.117 64.6853 159.877 64.8052 159.637 64.8052C159.397 64.8052 159.277 64.6853 159.037 64.5653L158.678 64.2055C158.678 64.0856 158.558 63.8457 158.558 63.6058C158.438 63.3659 158.438 63.1261 158.438 62.8862V62.1666C158.318 61.9267 158.318 61.5669 158.438 61.327V60.3675H163.475V60.0077C163.475 59.408 163.355 58.9282 163.355 58.4485C163.355 57.9687 163.235 57.489 163.115 56.8893Z" fill="white"/>
<path d="M172.351 61.5669C172.111 61.2071 171.991 60.9672 171.751 60.8473C171.511 60.6074 171.271 60.3675 171.031 60.1276L168.513 58.2086C168.153 57.9688 167.913 57.6089 167.913 57.2491C167.913 56.7694 168.033 56.5295 168.273 56.2896C168.393 56.0497 168.752 55.9298 169.112 55.9298C169.352 55.9298 169.592 56.0497 169.832 56.1697C170.072 56.1697 170.192 56.4096 170.432 56.6494C170.551 56.7694 170.671 57.0092 170.791 57.1292C170.791 57.3691 170.911 57.6089 171.031 57.8488L172.95 57.2491C172.83 56.7694 172.71 56.2896 172.47 55.9298C172.231 55.57 171.991 55.2102 171.751 54.8504C171.391 54.6105 171.031 54.3706 170.671 54.1307C170.192 54.0108 169.712 53.8909 169.112 53.8909C168.033 53.8909 167.073 54.1307 166.354 54.7304C165.754 55.3301 165.394 56.1697 165.394 57.2491C165.394 57.6089 165.394 57.8488 165.514 58.2086C165.634 58.4485 165.754 58.8083 165.994 59.0482C166.114 59.2881 166.354 59.408 166.594 59.6479C166.713 59.7678 166.953 60.0077 167.313 60.1276L169.712 62.0466C170.192 62.4064 170.432 62.8862 170.432 63.4859C170.432 63.8457 170.312 64.2055 170.072 64.4454C169.832 64.6853 169.592 64.8052 169.112 64.8052C168.393 64.8052 167.673 64.0856 167.313 62.8862L165.394 63.4859C165.634 64.4454 165.994 65.285 166.594 65.8846C167.313 66.4843 168.153 66.8441 169.112 66.8441C170.312 66.8441 171.151 66.4843 171.871 66.0046C172.59 65.4049 172.95 64.5653 172.95 63.4859C172.95 63.1261 172.83 62.7663 172.83 62.4064C172.71 62.0466 172.47 61.8068 172.351 61.5669Z" fill="white"/>
<path d="M3.59825 57.6089C3.47831 58.2086 3.23843 58.4485 2.75868 58.4485C2.15899 58.4485 1.91912 58.0887 1.91912 57.489V56.5295C1.91912 56.0498 1.91912 55.6899 2.15899 55.57C2.27893 55.3301 2.51881 55.2102 2.87862 55.2102H3.59825V57.6089ZM5.15743 52.5716H3.59825V53.7709H2.87862C2.51881 53.7709 2.27893 53.651 2.15899 53.5311C1.91912 53.2912 1.91912 53.0513 1.91912 52.6915V51.9719C1.91912 51.3722 2.15899 51.0124 2.63875 51.0124H4.55775V49.5731H2.63875C1.07956 49.5731 0.23999 50.4127 0.23999 52.0918V52.3317C0.23999 53.4111 0.599797 54.1308 1.31942 54.3706C0.599797 54.7304 0.23999 55.4501 0.23999 56.5295V57.6089C0.23999 59.1681 0.839674 59.8878 2.03905 59.8878C2.75868 59.8878 3.23843 59.6479 3.59825 59.0482C3.59825 59.2881 3.59824 59.6479 3.71818 59.8878H5.27737C5.15744 59.5279 5.15743 59.1681 5.15743 58.5684V55.2102H5.63719V53.7709H5.15743V52.5716Z" fill="white"/>
<path d="M12.8334 57.3691C12.8334 58.0887 12.5935 58.3286 11.9938 58.3286H11.0343V51.0124H11.9938C12.5935 51.0124 12.8334 51.3722 12.8334 51.9719V57.3691ZM11.9938 49.5731H9.4751V59.8878H11.9938C13.6729 59.8878 14.3925 58.9283 14.3925 57.2491V52.0918C14.3925 50.4127 13.6729 49.5731 11.9938 49.5731Z" fill="white"/>
<path d="M15.8318 59.8878H20.2695V58.3286H17.5109V55.3301H19.6698V53.8909H17.5109V51.0124H20.2695V49.5731H15.8318V59.8878Z" fill="white"/>
<path d="M1.79912 34.3411V27.0249H2.63869C3.23838 27.0249 3.47825 27.2648 3.47825 27.9844V33.2616C3.47825 33.9813 3.23838 34.3411 2.63869 34.3411H1.79912ZM5.15738 33.2616V27.9844C5.15738 26.3053 4.31781 25.4657 2.75862 25.4657H0.119995V35.7803H2.75862C4.31781 35.7803 5.15738 34.9408 5.15738 33.2616Z" fill="white"/>
<path d="M11.0344 34.3411H8.15587V31.3426H10.4347V29.7835H8.15587V27.0249H11.0344V25.4657H6.59668V35.7803H11.0344V34.3411Z" fill="white"/>
<path d="M4.31787 18.5093C5.75712 18.5093 6.71663 18.1495 7.55619 17.3099C8.27582 16.5903 8.63563 15.5108 8.63563 14.0716V11.6728H5.87706V14.1915C5.87706 15.3909 5.39731 15.9906 4.43781 15.9906C3.47831 15.9906 2.99855 15.3909 2.99855 14.1915V4.71644C2.99855 3.51706 3.47831 2.91737 4.43781 2.91737C5.39731 2.91737 5.87706 3.51706 5.87706 4.71644V6.63544H8.63563V4.83638C8.63563 3.39712 8.27582 2.31768 7.55619 1.59806C6.71663 0.758495 5.75712 0.398682 4.31787 0.398682C2.99855 0.398682 1.91912 0.758495 1.19949 1.59806C0.479865 2.31768 0.23999 3.39712 0.23999 4.83638V14.0716C0.23999 15.5108 0.479865 16.5903 1.19949 17.3099C1.91912 18.1495 2.99855 18.5093 4.31787 18.5093Z" fill="#7DB928"/>
<path d="M32.7431 58.8083L29.8646 48.9734H26.1465V66.6042H28.9051V54.7304L32.3832 66.6042H35.2618V48.9734H32.7431V58.8083Z" fill="#7DB928"/>
<path d="M22.0686 34.5809L19.1901 24.866H15.472V42.4968H18.2306V30.503L21.5889 42.4968H24.4674V24.866H22.0686V34.5809Z" fill="#7DB928"/>
<path d="M146.924 69.123C146.804 69.4828 146.444 69.7226 146.084 69.9625C145.604 70.2024 145.005 70.4423 144.405 70.4423C143.565 70.4423 142.846 70.0825 142.366 69.7226C142.126 69.4828 141.886 69.3628 141.766 69.123C141.646 68.8831 141.646 68.6432 141.646 68.4033V68.2834C141.646 67.9236 141.766 67.4438 142.006 67.084C142.246 66.7242 142.486 66.4843 142.726 66.3644H142.846C143.805 66.3644 144.525 66.3644 145.964 66.9641C146.684 67.204 146.924 67.6837 146.924 67.8036C147.164 67.9236 147.164 68.1635 147.164 68.4033C147.164 68.6432 147.044 68.8831 146.924 69.123ZM142.606 57.489C142.606 57.1292 142.726 56.8893 142.846 56.5295C142.966 56.2896 143.086 56.0497 143.326 55.9298C143.565 55.6899 143.805 55.57 144.045 55.57C144.405 55.57 144.645 55.6899 144.885 55.9298C145.125 56.0497 145.245 56.2896 145.365 56.5295C145.484 56.8893 145.484 57.1292 145.604 57.489V58.4485C145.604 60.2476 145.125 61.0871 144.045 61.0871C143.086 61.0871 142.486 60.2476 142.486 58.4485C142.486 58.0887 142.486 57.7289 142.606 57.489ZM149.322 68.4033C149.322 67.8036 149.203 67.2039 148.843 66.7242C148.483 66.0046 147.883 65.4049 147.044 65.0451C146.444 64.8052 145.844 64.6853 145.245 64.5653C145.005 64.5653 144.765 64.5653 144.525 64.4454H144.165C143.805 64.4454 143.565 64.3255 143.326 64.3255C143.086 64.3255 142.846 64.2055 142.726 64.0856L142.606 63.9656C142.486 63.9656 142.486 63.8457 142.486 63.7258V63.4859C142.486 63.3659 142.606 63.246 142.606 63.246C142.606 63.246 142.606 63.1261 142.726 63.0061L142.846 62.8862L144.045 63.0061H144.165C144.885 63.0061 145.604 62.7663 146.204 62.4064C146.804 62.0466 147.164 61.4469 147.403 60.8473C147.763 60.1276 147.883 59.2881 147.883 58.4485C147.883 58.0887 147.763 57.7289 147.763 57.2491C147.643 57.0092 147.643 56.7694 147.523 56.6494C147.523 56.4096 147.643 56.0497 147.883 56.0497C148.003 55.9298 148.123 55.9298 148.363 55.9298H149.083V53.8909H148.963C148.243 53.8909 147.643 54.2507 147.164 54.8504C146.924 55.0902 146.564 55.0902 146.444 54.8504C146.324 54.7304 146.204 54.6105 146.204 54.6105C145.964 54.3706 145.604 54.2507 145.245 54.1307C145.005 53.8909 144.525 53.8909 144.045 53.8909C143.326 53.8909 142.606 54.1307 142.006 54.4906C141.407 54.8504 141.047 55.4501 140.687 56.1697C140.447 56.7694 140.327 57.6089 140.327 58.4485C140.327 60.0077 140.687 61.2071 141.526 62.2865L141.407 62.4064C141.287 62.5264 141.167 62.6463 141.167 62.7663C141.167 62.7663 141.047 62.8862 140.927 63.0061C140.927 63.1261 140.807 63.246 140.807 63.3659C140.687 63.3659 140.687 63.4859 140.567 63.6058C140.567 63.7258 140.447 63.8457 140.447 63.9656C140.447 64.0856 140.327 64.2055 140.327 64.3255V64.6853C140.327 64.8052 140.327 65.0451 140.447 65.165C140.447 65.165 140.567 65.285 140.687 65.285C140.687 65.4049 140.927 65.5248 140.927 65.5248L140.687 65.6448C140.327 66.0046 140.087 66.3644 139.847 66.7242C139.607 67.2039 139.488 67.8036 139.488 68.4033C139.488 69.003 139.607 69.6027 139.847 70.0825C140.327 70.922 140.927 71.5217 141.766 71.8815C142.486 72.3613 143.445 72.6012 144.405 72.6012C145.724 72.6012 146.924 72.1214 147.763 71.4018C148.243 71.042 148.603 70.6821 148.843 70.0825C149.203 69.6027 149.322 69.003 149.322 68.4033Z" fill="white"/>
</g>
<defs>
<clipPath id="clip0_4_2872">
<rect width="172.83" height="72.2025" fill="white" transform="translate(0.119995 0.398682)"/>
</clipPath>
</defs>
</svg>
