<svg width="174" height="74" viewBox="0 0 174 74" fill="none" xmlns="http://www.w3.org/2000/svg">
<g clip-path="url(#clip0_4_2872)">
<path d="M13.1334 10.6135C13.1334 10.2537 13.1334 9.89391 13.2534 9.65404C13.2534 9.41416 13.2534 9.17429 13.3733 8.93441C13.4933 8.69454 13.6132 8.45466 13.7331 8.33472C13.973 8.21479 14.0929 8.09485 14.4528 8.09485C14.6926 8.09485 14.8126 8.21479 15.0524 8.33472C15.1724 8.45466 15.2923 8.69454 15.4123 8.93441C15.5322 9.17429 15.5322 9.41416 15.5322 9.65404C15.6521 9.89391 15.6521 10.1338 15.6521 10.4936V11.2132H13.1334V10.6135ZM10.7347 14.9313C10.8546 15.531 10.9746 16.0107 11.0945 16.6104C11.2144 17.0902 11.4543 17.5699 11.6942 17.8098C11.9341 18.1696 12.2939 18.4095 12.7736 18.6494C13.2534 18.8892 13.7331 19.0092 14.3328 19.0092C15.6521 19.0092 16.6116 18.6494 17.2113 17.9297C17.811 17.3301 18.0509 16.2506 18.1708 14.9313H15.6521V15.6509C15.5322 15.8908 15.5322 16.1307 15.4123 16.3705C15.2923 16.4905 15.1724 16.7304 15.0524 16.7304C14.9325 16.8503 14.6926 16.9702 14.4528 16.9702C14.2129 16.9702 13.973 16.8503 13.8531 16.7304C13.7331 16.7304 13.6132 16.4905 13.4932 16.3705C13.3733 16.2506 13.3733 16.0107 13.2534 15.7709C13.2534 15.531 13.1334 15.2911 13.1334 15.0512V12.5325H18.1708V10.6135C18.0509 10.1338 18.0509 9.65404 17.9309 9.17429C17.811 8.5746 17.6911 8.21479 17.5711 7.85497C17.3313 7.49516 17.0914 7.13535 16.8515 6.89547C16.6116 6.6556 16.2518 6.41572 15.7721 6.29578C15.4123 6.17585 14.9325 6.05591 14.4528 6.05591C13.8531 6.05591 13.2534 6.17585 12.8936 6.29578C12.4138 6.53566 12.054 6.77553 11.8141 7.13535C11.4543 7.37522 11.3344 7.73504 11.0945 8.21479C10.9746 8.69454 10.8546 9.17429 10.7347 9.77398C10.7347 10.2537 10.6147 10.8534 10.6147 11.4531V13.1322C10.6147 13.8519 10.7347 14.4515 10.7347 14.9313Z" fill="white"/>
<path d="M28.1255 18.7693V8.09485C28.1255 7.49516 28.0056 7.01541 27.6458 6.6556C27.286 6.29578 26.9262 6.05591 26.3265 6.05591C25.8467 6.05591 25.4869 6.17585 25.0072 6.29578C24.6473 6.41572 24.2875 6.6556 24.0477 6.77553C23.8078 7.01541 23.448 7.25529 23.0882 7.6151V6.17585H20.5695V18.7693H23.0882V8.81447C23.328 8.69454 23.448 8.5746 23.5679 8.45466C23.6878 8.45466 23.8078 8.33472 24.0477 8.21479C24.2875 8.21479 24.5274 8.09485 24.6473 8.09485C25.1271 8.09485 25.367 8.21479 25.4869 8.45466C25.6068 8.5746 25.6068 8.93441 25.6068 9.41416V18.7693H28.1255Z" fill="white"/>
<path d="M34.1224 1.85815H31.6037V6.17591H30.2844V8.09492H31.6037V15.8909C31.6037 16.9703 31.8436 17.6899 32.3234 18.2896C32.6832 18.7694 33.4028 19.0092 34.4822 19.0092C34.8421 19.0092 35.3218 19.0092 36.0414 18.8893V16.8504C35.6816 16.8504 35.3218 16.9703 35.2019 16.9703C34.7221 16.9703 34.4822 16.8504 34.3623 16.6105C34.2424 16.3706 34.1224 16.0108 34.1224 15.4111V8.09492H36.0414V6.17591H34.1224V1.85815Z" fill="white"/>
<path d="M40.9589 10.3737C40.9589 9.77398 41.0788 9.41416 41.4386 9.05435C41.7984 8.81448 42.1582 8.5746 42.7579 8.5746C43.2377 8.5746 43.5975 8.69454 44.0773 8.93441V6.05591H43.7174C43.1178 6.05591 42.5181 6.29578 42.0383 6.6556C41.5586 7.01541 41.1988 7.37522 40.9589 7.85497V6.17585H38.4402V18.7693H40.9589V10.3737Z" fill="white"/>
<path d="M48.0353 10.6135C48.0353 10.2537 48.1552 9.89391 48.1552 9.65404C48.1552 9.41416 48.2752 9.17429 48.2752 8.93441C48.3951 8.69454 48.515 8.45466 48.7549 8.33472C48.8748 8.21479 49.1147 8.09485 49.3546 8.09485C49.5945 8.09485 49.8344 8.21479 49.9543 8.33472C50.1942 8.45466 50.3141 8.69454 50.3141 8.93441C50.434 9.17429 50.434 9.41416 50.554 9.65404V11.2132H48.0353V10.6135ZM49.3546 19.0092C50.554 19.0092 51.5135 18.6494 52.1132 17.9297C52.7129 17.3301 53.0727 16.2506 53.0727 14.9313H50.554V15.6509C50.554 15.8908 50.434 16.1307 50.3141 16.3705C50.3141 16.4905 50.1942 16.7304 49.9543 16.7304C49.8344 16.8503 49.5945 16.9702 49.3546 16.9702C49.1147 16.9702 48.9948 16.8503 48.7549 16.7304C48.635 16.7304 48.515 16.4905 48.3951 16.3705C48.3951 16.2506 48.2752 16.0107 48.2752 15.7709C48.1552 15.531 48.1552 15.2911 48.1552 15.0512C48.1552 14.8114 48.0353 14.5715 48.0353 14.3316V12.5325H53.0727V10.6135C53.0727 10.1338 52.9527 9.65404 52.8328 9.17429C52.8328 8.5746 52.5929 8.21479 52.473 7.85497C52.2331 7.49516 52.1132 7.13535 51.7534 6.89547C51.5135 6.6556 51.1537 6.41572 50.7939 6.29578C50.3141 6.17585 49.8344 6.05591 49.3546 6.05591C48.7549 6.05591 48.2752 6.17585 47.7954 6.29578C47.3157 6.53566 46.9559 6.77553 46.716 7.13535C46.4761 7.37522 46.2362 7.73504 46.1163 8.21479C45.8764 8.69454 45.7565 9.17429 45.7565 9.77398C45.6365 10.2537 45.6365 10.8534 45.5166 11.4531V13.1322C45.6365 13.8519 45.6365 14.4515 45.6365 14.9313C45.7565 15.531 45.8764 16.0107 45.9963 16.6104C46.2362 17.0902 46.3562 17.5699 46.716 17.8098C46.9559 18.1696 47.3157 18.4095 47.7954 18.6494C48.1552 18.8892 48.7549 19.0092 49.3546 19.0092Z" fill="white"/>
<path d="M32.2035 40.1184C32.2035 40.5982 31.7238 41.3178 30.8842 41.3178C30.0446 41.3178 29.6848 40.5982 29.6848 39.5187C29.6848 39.2788 29.6848 39.039 29.8048 38.7991C29.8048 38.5592 29.9247 38.4393 30.0446 38.3193C30.1646 38.0795 30.2845 37.9595 30.5244 37.8396C30.7643 37.5997 30.8842 37.4798 31.0041 37.3598C31.244 37.2399 31.364 37.12 31.6038 37C31.8437 36.8801 32.0836 36.7601 32.2035 36.6402V40.1184ZM33.6428 31.243C33.0431 30.5234 32.0836 30.1636 30.8842 30.1636C29.6848 30.1636 28.8453 30.5234 28.1256 31.243C27.526 31.9626 27.1661 32.9221 27.1661 34.1215H29.6848V33.8816C29.6848 33.282 29.8048 32.9221 29.9247 32.5623C30.1646 32.3225 30.5244 32.2025 30.8842 32.2025C31.364 32.2025 31.7238 32.3225 31.8437 32.6823C32.0836 33.0421 32.2035 33.5218 32.2035 34.1215V35.081C32.0836 35.081 31.9636 35.081 31.8437 35.201C31.244 35.4408 30.7643 35.6807 30.4045 35.8006C30.1646 35.9206 29.8048 36.0405 29.2051 36.4003C28.7253 36.7601 28.3655 37 28.1256 37.3598C27.8858 37.5997 27.6459 38.0795 27.406 38.5592C27.2861 39.039 27.1661 39.6387 27.1661 40.2383C27.1661 40.958 27.406 41.6776 27.8858 42.2773C28.3655 42.877 28.8453 43.1168 29.9247 43.1168C31.4839 43.1168 32.0836 42.3972 32.2035 42.1573V42.9969H34.7222V34.1215C34.7222 33.0421 34.3624 32.0826 33.6428 31.243Z" fill="white"/>
<path d="M42.9978 64.3457C42.9978 64.8254 42.5181 65.5451 41.6785 65.5451C40.8389 65.5451 40.4791 64.7055 40.4791 63.746C40.4791 63.3862 40.4791 63.2663 40.5991 63.0264C40.5991 62.7865 40.719 62.5466 40.839 62.4267C40.9589 62.3068 41.0788 62.0669 41.3187 61.9469C41.5586 61.827 41.6785 61.5871 41.7985 61.5871C42.0383 61.4672 42.1583 61.3473 42.3981 61.2273C42.638 60.9874 42.8779 60.8675 42.9978 60.8675V64.3457ZM44.4371 55.4703C43.8374 54.7507 42.8779 54.3909 41.6785 54.3909C40.4791 54.3909 39.6396 54.7507 38.9199 55.4703C38.3203 56.1899 37.9604 57.1494 37.9604 58.3488H40.4791V57.989C40.4791 57.5092 40.5991 57.0295 40.719 56.7896C40.9589 56.4298 41.3187 56.3099 41.6785 56.3099C42.1583 56.3099 42.5181 56.5497 42.638 56.9096C42.8779 57.1494 42.9978 57.7491 42.9978 58.3488V59.1884C42.8779 59.3083 42.758 59.3083 42.638 59.3083C42.0383 59.6681 41.5586 59.7881 41.1988 59.908C40.9589 60.0279 40.5991 60.2678 39.9994 60.6276C39.5196 60.8675 39.1598 61.2273 38.9199 61.4672C38.6801 61.827 38.4402 62.1868 38.2003 62.6666C37.9604 63.1463 37.9604 63.746 37.9604 64.3457C37.9604 65.0653 38.2003 65.785 38.6801 66.3846C39.1598 66.9843 39.6396 67.3441 40.719 67.3441C42.2782 67.3441 42.8779 66.6245 42.9978 66.3846V67.1043H45.5165V58.3488C45.5165 57.1494 45.1567 56.1899 44.4371 55.4703Z" fill="white"/>
<path d="M39.9994 33.0421C40.1193 32.8022 40.3592 32.6823 40.3592 32.6823C40.4792 32.5623 40.719 32.4424 40.839 32.4424C41.0788 32.3225 41.3187 32.3225 41.5586 32.3225C41.9184 32.3225 42.1583 32.3225 42.2782 32.5623C42.3982 32.8022 42.5181 33.0421 42.5181 33.5218V42.9969H45.0368V32.2025C45.0368 31.7228 44.7969 31.243 44.4371 30.7633C44.1972 30.4035 43.7175 30.1636 43.2377 30.1636C42.758 30.1636 42.2782 30.2835 41.7985 30.4035C41.4387 30.6433 41.0788 30.7633 40.839 31.0031C40.5991 31.1231 40.3592 31.363 39.9994 31.7228V30.4035H37.4807V42.9969H39.9994V33.0421Z" fill="white"/>
<path d="M50.0742 34.8411V33.7617C50.0742 33.5218 50.1942 33.4019 50.1942 33.282C50.1942 33.162 50.3141 33.0421 50.3141 32.9221C50.3941 32.7622 50.474 32.6423 50.554 32.5623C50.6739 32.4424 50.7939 32.4424 50.9138 32.3225H51.7534C51.9133 32.4024 52.0332 32.4824 52.1132 32.5623C52.2331 32.6823 52.3531 32.6823 52.3531 32.9221C52.473 33.0421 52.473 33.162 52.473 33.282C52.473 33.4019 52.5929 33.5218 52.5929 33.7617V39.6387C52.5929 39.8785 52.473 39.9985 52.473 40.1184C52.473 40.2383 52.473 40.3583 52.3531 40.4782C52.3531 40.5982 52.2331 40.7181 52.1132 40.838C51.9932 40.838 51.9932 40.958 51.7534 40.958C51.6334 41.0779 51.5135 41.0779 51.3935 41.0779C51.1537 41.0779 51.0337 41.0779 50.9138 40.958C50.7939 40.958 50.6739 40.838 50.554 40.838C50.434 40.7181 50.434 40.5982 50.3141 40.4782C50.3141 40.3583 50.1942 40.2383 50.1942 40.1184C50.1942 39.9985 50.0742 39.8785 50.0742 39.6387V34.8411ZM51.3935 43.1168C52.7129 43.1168 53.6724 42.757 54.2721 41.9175C54.8717 41.1978 55.1116 39.9985 55.1116 38.5592V34.8411C55.1116 33.282 54.8717 32.2025 54.2721 31.363C53.6724 30.6433 52.7129 30.1636 51.3935 30.1636C49.9543 30.1636 48.9948 30.6433 48.3951 31.363C47.7954 32.2025 47.5555 33.282 47.5555 34.8411V38.5592C47.5555 39.9985 47.7954 41.1978 48.3951 41.9175C48.9948 42.757 49.9543 43.1168 51.3935 43.1168Z" fill="white"/>
<path d="M61.1085 41.0779C60.2689 41.0779 59.6693 40.4782 59.1895 39.1589L57.2705 39.8785C57.5104 40.838 57.9901 41.5577 58.5898 42.2773C59.1895 42.877 60.0291 43.1168 61.1085 43.1168C62.1879 43.1168 63.1475 42.877 63.8671 42.2773C64.4668 41.6776 64.8266 40.958 64.8266 39.8785C64.8266 39.3988 64.8266 39.039 64.7066 38.7991C64.5867 38.4393 64.4668 38.0795 64.2269 37.8396C64.107 37.5997 63.8671 37.3598 63.7471 37.12C63.5073 36.8801 63.2674 36.7601 63.0275 36.5203L60.5088 34.6013C60.0291 34.2415 59.7892 33.8816 59.7892 33.5218C59.7892 33.162 59.9091 32.8022 60.149 32.5623C60.3889 32.4424 60.6288 32.3225 61.1085 32.3225C61.3484 32.3225 61.5883 32.3225 61.8281 32.4424C61.9481 32.5623 62.1879 32.6823 62.3079 32.9221C62.4278 33.162 62.5478 33.4019 62.6677 33.5218C62.7876 33.7617 62.9076 33.8816 63.0275 34.1215L64.8266 33.5218C64.7066 33.0421 64.5867 32.6823 64.3468 32.2025C64.2269 31.8427 63.987 31.4829 63.6272 31.243C63.3873 30.8832 63.0275 30.6433 62.5478 30.5234C62.068 30.2835 61.5883 30.1636 61.1085 30.1636C59.9091 30.1636 59.0696 30.5234 58.3499 31.1231C57.6303 31.6028 57.2705 32.4424 57.2705 33.5218C57.2705 33.8816 57.3905 34.2415 57.5104 34.4813C57.5104 34.8411 57.7503 35.081 57.8702 35.3209C58.1101 35.5608 58.3499 35.8006 58.4699 35.9206C58.7098 36.1605 58.9496 36.2804 59.1895 36.5203L61.7082 38.3193C62.188 38.7991 62.3079 39.2788 62.3079 39.8785C62.3079 40.2383 62.188 40.5982 62.068 40.7181C61.8281 40.958 61.4683 41.0779 61.1085 41.0779Z" fill="white"/>
<path fill-rule="evenodd" clip-rule="evenodd" d="M76.1007 30.2833H78.7393V42.9967H76.1007V30.2833ZM76.1007 25.9656H78.7393V28.6042H76.1007V25.9656Z" fill="white"/>
<path d="M84.0166 34.7212C84.0166 34.3614 84.0166 34.1215 84.1366 33.8816C84.1366 33.6418 84.1365 33.282 84.2565 33.0421C84.3764 32.8022 84.4964 32.6823 84.6163 32.4424C84.8562 32.3225 85.0961 32.3225 85.3359 32.3225C85.5758 32.3225 85.8157 32.3225 85.9356 32.4424C86.0556 32.5623 86.1755 32.8022 86.2954 33.0421C86.4154 33.282 86.4154 33.5218 86.5353 33.7617V35.4408H84.0166V34.7212ZM88.0945 42.1573C88.6942 41.4377 89.054 40.3583 89.054 39.039L86.5353 39.1589V39.8785C86.4154 40.1184 86.4154 40.2383 86.2954 40.4782C86.2954 40.7181 86.1755 40.838 85.9356 40.958C85.8157 41.0779 85.5758 41.0779 85.3359 41.0779C85.0961 41.0779 84.8562 41.0779 84.7362 40.958C84.6163 40.838 84.4964 40.7181 84.3764 40.5982C84.2565 40.3583 84.2565 40.1184 84.1366 39.9985C84.1366 39.7586 84.1365 39.5187 84.0166 39.2788V36.6402H89.054V34.7212C88.9341 34.2415 88.9341 33.7617 88.8141 33.282C88.6942 32.8022 88.5742 32.3225 88.4543 31.9626C88.2144 31.7228 87.9746 31.363 87.7347 31.1231C87.4948 30.7633 87.135 30.5234 86.7752 30.4035C86.2954 30.2835 85.8157 30.1636 85.3359 30.1636C84.7362 30.1636 84.2565 30.2835 83.7767 30.5234C83.297 30.6433 82.9372 30.8832 82.6973 31.243C82.4574 31.6028 82.2175 31.9626 81.9777 32.4424C81.8577 32.9221 81.7378 33.4019 81.6179 33.8816C81.6179 34.3614 81.4979 34.9611 81.4979 35.6807V37.2399C81.4979 37.9595 81.6179 38.5592 81.6179 39.1589C81.7378 39.6387 81.8577 40.2383 81.9777 40.7181C82.0976 41.1978 82.3375 41.6776 82.5774 42.0374C82.9372 42.3972 83.297 42.6371 83.6568 42.877C84.1365 42.9969 84.6163 43.1168 85.3359 43.1168C86.5353 43.1168 87.4948 42.757 88.0945 42.1573Z" fill="white"/>
<path d="M95.6505 32.3225C96.0103 32.3225 96.2501 32.3225 96.3701 32.5623C96.49 32.8022 96.49 33.0421 96.49 33.5218V42.9969H99.0087V32.2025C99.0087 31.7228 98.8888 31.243 98.529 30.7633C98.1691 30.4035 97.8093 30.1636 97.2097 30.1636C96.7299 30.1636 96.3701 30.2835 95.8903 30.4035C95.5305 30.6433 95.1707 30.7633 94.9308 31.0031C94.691 31.1231 94.3311 31.363 93.9713 31.7228V30.4035H91.4526V42.9969H93.9713V33.0421C94.2112 32.8022 94.3311 32.6823 94.4511 32.6823C94.571 32.5623 94.691 32.4424 94.9308 32.4424C95.1707 32.3225 95.4106 32.3225 95.6505 32.3225Z" fill="white"/>
<path d="M107.884 42.0374C108.124 41.5577 108.364 41.1978 108.484 40.5982C108.724 40.1184 108.724 39.5187 108.724 38.919H106.205V40.1184C106.085 40.3583 106.085 40.4782 105.965 40.5982C105.845 40.7181 105.725 40.838 105.605 40.958C105.365 41.0779 105.246 41.0779 105.006 41.0779C104.766 41.0779 104.526 41.0779 104.406 40.838C104.166 40.7181 104.046 40.5982 104.046 40.2383C103.926 39.9985 103.806 39.7586 103.806 39.5187C103.806 39.2788 103.686 38.919 103.686 38.5592V34.8411C103.686 34.4813 103.806 34.1215 103.806 33.8816C103.806 33.6418 103.926 33.282 103.926 33.0421C104.046 32.8022 104.166 32.5623 104.406 32.4424C104.526 32.2025 104.766 32.2025 105.006 32.2025C105.246 32.2025 105.485 32.2025 105.605 32.3225C105.845 32.4424 105.965 32.6823 105.965 32.9221C106.085 33.162 106.205 33.4019 106.205 33.6418V34.4813H108.724C108.724 33.0421 108.484 31.9626 107.884 31.243C107.284 30.5234 106.325 30.1636 105.006 30.1636C104.406 30.1636 103.806 30.2835 103.446 30.5234C102.967 30.7633 102.607 31.0031 102.367 31.363C102.127 31.6028 101.887 32.0826 101.647 32.5623C101.527 33.0421 101.408 33.5218 101.408 34.1215C101.288 34.6013 101.288 35.201 101.288 35.8006C101.168 36.4003 101.168 37 101.288 37.4798C101.288 38.1994 101.288 38.7991 101.408 39.2788C101.408 39.7586 101.527 40.2383 101.647 40.838C101.887 41.3178 102.127 41.6776 102.367 42.0374C102.607 42.3972 102.967 42.6371 103.446 42.877C103.806 42.9969 104.406 43.1168 105.006 43.1168C105.605 43.1168 106.205 42.9969 106.685 42.877C107.165 42.6371 107.644 42.3972 107.884 42.0374Z" fill="white"/>
<path d="M113.281 34.7212V33.8816C113.401 33.6418 113.401 33.282 113.521 33.0421C113.521 32.8022 113.761 32.6823 113.881 32.4424C114.001 32.3225 114.241 32.3225 114.481 32.3225C114.721 32.3225 114.961 32.3225 115.2 32.4424C115.32 32.5623 115.44 32.8022 115.56 33.0421C115.56 33.282 115.68 33.5218 115.68 33.7617C115.68 34.0016 115.8 34.3614 115.8 34.7212V35.4408H113.281V34.7212ZM117.239 42.1573C117.839 41.4377 118.199 40.3583 118.319 39.039L115.8 39.1589C115.8 39.3988 115.8 39.6387 115.68 39.8785C115.68 40.1184 115.68 40.2383 115.56 40.4782C115.44 40.7181 115.32 40.838 115.2 40.958C114.961 41.0779 114.841 41.0779 114.481 41.0779C114.361 41.0779 114.121 41.0779 114.001 40.958C113.881 40.838 113.761 40.7181 113.641 40.5982C113.521 40.3583 113.521 40.1184 113.401 39.9985C113.401 39.7586 113.281 39.5187 113.281 39.2788V36.6402H118.319V36.4003C118.319 35.8006 118.319 35.201 118.199 34.7212C118.199 34.2415 118.199 33.7617 118.079 33.282C117.959 32.8022 117.839 32.3225 117.599 31.9626C117.479 31.7228 117.239 31.363 116.999 31.1231C116.64 30.7633 116.4 30.5234 115.92 30.4035C115.56 30.2835 115.08 30.1636 114.481 30.1636C113.881 30.1636 113.401 30.2835 112.922 30.5234C112.562 30.6433 112.202 30.8832 111.962 31.243C111.602 31.6028 111.362 31.9626 111.242 32.4424C111.123 32.9221 111.003 33.4019 110.883 33.8816C110.763 34.3614 110.763 34.9611 110.763 35.6807V37.2399C110.763 37.9595 110.763 38.5592 110.883 39.1589C110.883 39.6387 111.003 40.2383 111.242 40.7181C111.362 41.1978 111.602 41.6776 111.842 42.0374C112.082 42.3972 112.442 42.6371 112.922 42.877C113.401 42.9969 113.881 43.1168 114.481 43.1168C115.8 43.1168 116.64 42.757 117.239 42.1573Z" fill="white"/>
<path d="M127.794 39.8785C127.794 39.3988 127.794 39.039 127.674 38.7991C127.554 38.4393 127.434 38.0795 127.194 37.8396C127.074 37.5997 126.834 37.3598 126.594 37.12C126.474 36.8801 126.235 36.7601 125.875 36.5203L123.356 34.6013C122.996 34.2415 122.756 33.8816 122.756 33.5218C122.756 33.162 122.876 32.8022 123.116 32.5623C123.356 32.4424 123.596 32.3225 124.076 32.3225C124.316 32.3225 124.555 32.3225 124.675 32.4424C124.915 32.5623 125.155 32.6823 125.275 32.9221C125.395 33.162 125.515 33.4019 125.635 33.5218C125.755 33.7617 125.875 33.8816 125.875 34.1215L127.794 33.5218C127.674 33.0421 127.554 32.6823 127.314 32.2025C127.194 31.8427 126.954 31.4829 126.594 31.243C126.355 30.8832 125.995 30.6433 125.515 30.5234C125.035 30.2835 124.555 30.1636 124.076 30.1636C122.876 30.1636 121.917 30.5234 121.317 31.1231C120.598 31.6028 120.238 32.4424 120.238 33.5218C120.238 33.8816 120.358 34.2415 120.358 34.4813C120.478 34.8411 120.598 35.081 120.837 35.3209C121.077 35.5608 121.197 35.8006 121.437 35.9206C121.677 36.1605 121.797 36.2804 122.157 36.5203L124.675 38.3193C125.035 38.7991 125.275 39.2788 125.275 39.8785C125.275 40.2383 125.155 40.5982 124.915 40.7181C124.675 40.958 124.436 41.0779 124.076 41.0779C123.236 41.0779 122.636 40.4782 122.157 39.1589L120.238 39.8785C120.478 40.838 120.957 41.5577 121.557 42.2773C122.157 42.877 122.996 43.1168 124.076 43.1168C125.155 43.1168 126.115 42.877 126.714 42.2773C127.434 41.6776 127.794 40.958 127.794 39.8785Z" fill="white"/>
<path d="M54.0322 54.3909C53.5524 54.3909 53.0727 54.5108 52.5929 54.6307C52.2331 54.7507 51.8733 54.9906 51.6334 55.1105C51.3935 55.3504 51.1537 55.5902 50.7938 55.9501V54.5108H48.2751V67.1043H50.7938V57.1494C50.9138 57.0295 51.1537 56.9096 51.1537 56.7896C51.2736 56.7896 51.5135 56.6697 51.6334 56.5497C51.8733 56.4298 52.1132 56.4298 52.353 56.4298C52.7128 56.4298 52.9527 56.5497 53.0727 56.7896C53.1926 56.9096 53.3125 57.2694 53.3125 57.7491V67.1043H55.8312V56.4298C55.8312 55.8301 55.5914 55.3504 55.2315 54.9906C54.9917 54.6307 54.5119 54.3909 54.0322 54.3909Z" fill="white"/>
<path d="M63.3872 62.7865V63.746C63.3872 63.9859 63.2673 64.1058 63.2673 64.2258C63.2673 64.3457 63.2673 64.4656 63.1474 64.7055C63.1474 64.8254 63.0274 64.9454 62.9075 64.9454C62.8275 65.0253 62.7076 65.1053 62.5477 65.1853C62.4277 65.1853 62.3078 65.3052 62.1879 65.3052C61.948 65.3052 61.828 65.1853 61.7081 65.1853C61.5882 65.0653 61.4682 65.0653 61.3483 64.9454C61.2284 64.9454 61.1084 64.8254 61.1084 64.7055C60.9885 64.4656 60.9885 64.3457 60.9885 64.2258C60.9885 64.1058 60.8685 63.9859 60.8685 63.746V57.8691C60.8685 57.7491 60.9885 57.5092 60.9885 57.3893C60.9885 57.2694 60.9885 57.1494 61.1084 57.0295C61.1084 56.9096 61.2284 56.7896 61.3483 56.6697C61.4682 56.6697 61.5882 56.5497 61.7081 56.5497C61.828 56.4298 61.948 56.4298 62.1879 56.4298C62.3078 56.4298 62.4277 56.4298 62.5477 56.5497C62.7875 56.5497 62.7875 56.6697 62.9075 56.6697C63.0274 56.7896 63.1474 56.9096 63.1474 57.0295C63.2673 57.1494 63.2673 57.2694 63.2673 57.3893C63.2673 57.5092 63.3872 57.7491 63.3872 57.8691V62.7865ZM62.1879 54.3909C60.7486 54.3909 59.7891 54.7507 59.1894 55.5902C58.5897 56.3099 58.3499 57.5092 58.3499 58.9485V62.7865C58.3499 64.2258 58.5897 65.3052 59.1894 66.1448C59.7891 66.8644 60.7486 67.3441 62.1879 67.3441C63.5072 67.3441 64.4667 66.8644 65.0664 66.1448C65.6661 65.3052 65.9059 64.2258 65.9059 62.7865V58.9485C65.9059 57.5092 65.6661 56.3099 65.0664 55.5902C64.4667 54.7507 63.5072 54.3909 62.1879 54.3909Z" fill="white"/>
<path d="M71.7829 50.1931H69.2643V54.5109H67.9449V56.4299H69.2643V64.2258C69.2643 65.3053 69.5041 66.0249 69.8639 66.5046C70.3437 67.1043 71.0633 67.3442 72.0228 67.3442C72.5026 67.3442 72.9823 67.2243 73.582 67.2243V65.1853C73.2222 65.1853 72.9823 65.3053 72.7424 65.3053C72.3826 65.3053 72.0228 65.1853 71.9029 64.9455C71.7829 64.7056 71.7829 64.3458 71.7829 63.7461V56.4299H73.582V54.5109H71.7829V50.1931Z" fill="white"/>
<path d="M80.7782 59.5482H78.2595V58.9485C78.2595 58.5887 78.3795 58.2289 78.3795 57.989C78.3795 57.7491 78.4994 57.5092 78.4994 57.2694C78.6194 57.0295 78.7393 56.7896 78.9792 56.6697C79.0991 56.5497 79.339 56.4298 79.5789 56.4298C79.8187 56.4298 80.0586 56.5497 80.1785 56.6697C80.4184 56.7896 80.5384 56.9096 80.5384 57.1494C80.6583 57.5092 80.6583 57.7491 80.7782 57.989V59.5482ZM83.0571 57.3893C83.0571 56.9096 82.8172 56.5497 82.6972 56.1899C82.4574 55.8301 82.3374 55.4703 81.9776 55.2304C81.7377 54.9906 81.3779 54.7507 81.0181 54.6307C80.5384 54.3909 80.0586 54.3909 79.5789 54.3909C78.9792 54.3909 78.4994 54.5108 78.0197 54.6307C77.5399 54.8706 77.1801 55.1105 76.9402 55.3504C76.7004 55.7102 76.4605 56.07 76.3405 56.5497C76.1007 57.0295 75.9807 57.5092 75.9807 58.1089C75.8608 58.5887 75.8608 59.1884 75.7408 59.7881V61.4672C75.8608 62.1868 75.8608 62.7865 75.8608 63.2663C75.9807 63.8659 76.1007 64.3457 76.2206 64.8255C76.4605 65.4251 76.5804 65.785 76.9402 66.1448C77.1801 66.5046 77.5399 66.7445 78.0197 66.9843C78.3795 67.2242 78.9792 67.3441 79.5789 67.3441C80.7782 67.3441 81.7377 66.9843 82.3374 66.2647C82.9371 65.5451 83.2969 64.5856 83.2969 63.2663H80.7782V63.9859C80.7782 64.2258 80.6583 64.4656 80.5384 64.5856C80.5384 64.8254 80.4184 64.9454 80.1785 65.0653C80.0586 65.1853 79.8187 65.3052 79.5789 65.3052C79.339 65.3052 79.219 65.1853 78.9792 65.0653L78.6194 64.7055C78.6194 64.5856 78.4994 64.3457 78.4994 64.1058C78.3795 63.8659 78.3795 63.6261 78.3795 63.3862C78.3795 63.1463 78.2595 62.9064 78.2595 62.6666V60.8675H83.2969V58.9485C83.2969 58.4687 83.177 57.989 83.0571 57.3893Z" fill="white"/>
<path d="M68.9044 33.8816C69.0244 33.6418 69.0244 33.282 69.1443 33.0421C69.2643 32.8022 69.3842 32.5623 69.5041 32.4424C69.744 32.2025 69.8639 32.2025 70.1038 32.2025C70.3437 32.2025 70.5836 32.2025 70.8234 32.3225C70.9434 32.4424 71.0633 32.6823 71.1833 32.9221C71.1833 33.162 71.3032 33.4019 71.3032 33.6418C71.4231 33.8816 71.4231 34.1215 71.4231 34.4813H73.9418C73.8219 33.0421 73.582 31.9626 72.9823 31.243C72.3826 30.5234 71.4231 30.1636 70.1038 30.1636C69.5041 30.1636 69.0244 30.2835 68.5446 30.5234C68.0649 30.7633 67.7051 31.0031 67.4652 31.363C67.2253 31.6028 66.9854 32.0826 66.8655 32.5623C66.6256 33.0421 66.5057 33.5218 66.5057 34.1215C66.3858 34.6013 66.3857 35.201 66.3857 35.8006V37.4798C66.3857 38.1994 66.3858 38.7991 66.5057 39.2788C66.5057 39.7586 66.6256 40.2383 66.8655 40.838C66.9854 41.3178 67.2253 41.6776 67.4652 42.0374C67.7051 42.3972 68.0649 42.6371 68.5446 42.877C69.0244 42.9969 69.5041 43.1168 70.1038 43.1168C70.8234 43.1168 71.4231 42.9969 71.9029 42.877C72.3826 42.6371 72.7424 42.3972 72.9823 42.0374C73.3421 41.5577 73.582 41.1978 73.7019 40.5982C73.8219 40.1184 73.9418 39.5187 73.9418 38.919H71.4231V39.5187C71.4231 39.7586 71.3032 39.8785 71.3032 40.1184C71.1832 40.3583 71.1833 40.4782 71.0633 40.5982C70.9434 40.7181 70.8234 40.838 70.7035 40.958C70.5836 41.0779 70.3437 41.0779 70.1038 41.0779C69.8639 41.0779 69.744 41.0779 69.5041 40.838C69.3842 40.7181 69.2643 40.5982 69.1443 40.3583C69.0244 39.9985 69.0244 39.7586 68.9044 39.5187V38.5592C68.7845 36.8801 68.7845 35.6807 68.9044 34.8411V33.8816Z" fill="white"/>
<path d="M87.7346 57.989C87.7346 57.7491 87.8545 57.5092 87.8545 57.1494C87.9745 56.9096 88.0944 56.6697 88.3343 56.5497C88.4542 56.4298 88.6941 56.3099 88.934 56.3099C89.1738 56.3099 89.4137 56.4298 89.5336 56.5497C89.7735 56.6697 89.8935 56.7896 89.8935 57.0295C90.0134 57.2694 90.0134 57.5092 90.1333 57.7491V58.5887H92.652C92.652 57.2694 92.2922 56.1899 91.8125 55.4703C91.2128 54.7507 90.2533 54.3909 88.934 54.3909C88.3343 54.3909 87.7346 54.5108 87.3748 54.6307C86.895 54.8706 86.5352 55.1105 86.2953 55.4703C85.9355 55.8301 85.8156 56.1899 85.5757 56.6697C85.4558 57.2694 85.3358 57.7491 85.2159 58.2289C85.2159 58.7086 85.2159 59.3083 85.0959 60.0279V61.7071C85.2159 62.3068 85.2159 62.9064 85.2159 63.3862C85.3358 63.9859 85.4558 64.4656 85.5757 64.9454C85.8156 65.4251 85.9355 65.9049 86.2953 66.2647C86.5352 66.5046 86.895 66.8644 87.3748 66.9843C87.7346 67.2242 88.3343 67.3441 88.934 67.3441C89.5337 67.3441 90.1333 67.2242 90.6131 66.9843C91.0928 66.8644 91.4526 66.5046 91.8125 66.1448C92.0523 65.785 92.2922 65.3052 92.4122 64.8255C92.5321 64.3457 92.652 63.746 92.652 63.0264H90.1333V63.746C90.1333 63.8659 90.1333 64.1058 90.0134 64.3457C90.0134 64.4656 89.8935 64.7055 89.8935 64.8255C89.7735 64.9454 89.6536 65.0653 89.5336 65.0653C89.2938 65.1853 89.1738 65.3052 88.934 65.3052C88.6941 65.3052 88.4542 65.1853 88.3343 65.0653C88.0944 64.9454 87.9745 64.7055 87.8545 64.4656C87.8545 64.2258 87.7346 63.9859 87.7346 63.6261C87.6146 63.3862 87.6146 63.0264 87.6146 62.6666V59.0684C87.6146 58.7086 87.6146 58.3488 87.7346 57.989Z" fill="white"/>
<path d="M100.568 54.3908C100.088 54.3908 99.7284 54.5108 99.2486 54.6307C98.8888 54.7506 98.529 54.9905 98.2891 55.1105C98.0492 55.3503 97.6894 55.5902 97.3296 55.95V49.4734H94.8109V67.1042H97.3296V57.1494C97.9293 56.6697 98.529 56.4298 99.0087 56.4298C99.3685 56.4298 99.6084 56.5497 99.7284 56.7896C99.8483 56.9095 99.8483 57.2693 99.8483 57.7491V67.1042H102.367V56.4298C102.367 55.8301 102.247 55.3503 101.887 54.9905C101.527 54.6307 101.168 54.3908 100.568 54.3908Z" fill="white"/>
<path d="M111.003 54.3909C110.523 54.3909 110.043 54.5108 109.563 54.6307C109.203 54.7507 108.844 54.9906 108.604 55.1105C108.364 55.3504 108.124 55.5902 107.764 55.9501V54.5108H105.246V67.1043H107.764V57.1494C107.884 57.0295 108.124 56.9096 108.124 56.7896C108.244 56.7896 108.484 56.6697 108.604 56.5497C108.844 56.4298 109.084 56.4298 109.323 56.4298C109.683 56.4298 109.923 56.5497 110.043 56.7896C110.163 56.9096 110.283 57.2694 110.283 57.7491V67.1043H112.802V56.4298C112.802 55.8301 112.562 55.3504 112.202 54.9906C111.962 54.6307 111.482 54.3909 111.003 54.3909Z" fill="white"/>
<path d="M120.358 62.7865V63.746C120.358 63.9859 120.358 64.1058 120.238 64.2258C120.238 64.3457 120.238 64.4656 120.118 64.7055C120.118 64.8254 119.998 64.9454 119.878 64.9454C119.878 65.0653 119.758 65.0653 119.518 65.1853C119.398 65.1853 119.278 65.3052 119.158 65.3052C118.918 65.3052 118.799 65.1853 118.679 65.1853C118.559 65.0653 118.439 65.0653 118.319 64.9454C118.199 64.9454 118.199 64.8254 118.079 64.7055C118.079 64.4656 117.959 64.3457 117.959 64.2258C117.959 64.1058 117.839 63.9859 117.839 63.746V57.8691C117.839 57.7491 117.959 57.5092 117.959 57.3893C117.959 57.2694 118.079 57.1494 118.079 57.0295C118.199 56.9096 118.199 56.7896 118.319 56.6697C118.439 56.6697 118.559 56.5497 118.679 56.5497C118.799 56.4298 118.918 56.4298 119.158 56.4298C119.278 56.4298 119.398 56.4298 119.518 56.5497C119.758 56.5497 119.878 56.6697 119.878 56.6697C119.998 56.7896 120.118 56.9096 120.118 57.0295C120.238 57.1494 120.238 57.2694 120.238 57.3893C120.358 57.5092 120.358 57.7491 120.358 57.8691V62.7865ZM119.158 54.3909C117.719 54.3909 116.76 54.7507 116.16 55.5902C115.68 56.3099 115.32 57.5092 115.32 58.9485V62.7865C115.32 64.2258 115.68 65.3052 116.16 66.1448C116.76 66.8644 117.719 67.3441 119.158 67.3441C120.478 67.3441 121.437 66.8644 122.037 66.1448C122.637 65.3052 122.876 64.2258 122.876 62.7865V58.9485C122.876 57.5092 122.637 56.3099 122.037 55.5902C121.437 54.7507 120.478 54.3909 119.158 54.3909Z" fill="white"/>
<path d="M128.154 49.4734H125.515V67.2242H128.154V49.4734Z" fill="white"/>
<path d="M135.71 62.7865V63.746C135.71 63.9859 135.71 64.1058 135.59 64.2258C135.59 64.3457 135.59 64.4656 135.47 64.7055C135.47 64.8254 135.35 64.9454 135.23 64.9454C135.23 65.0653 135.11 65.0653 134.99 65.1853C134.75 65.1853 134.63 65.3052 134.51 65.3052C134.27 65.3052 134.15 65.1853 134.031 65.1853C133.911 65.0653 133.791 65.0653 133.671 64.9454C133.551 64.9454 133.551 64.8254 133.431 64.7055C133.431 64.4656 133.311 64.3457 133.311 64.2258C133.311 64.1058 133.191 63.9859 133.191 63.746V57.8691C133.191 57.7491 133.311 57.5092 133.311 57.3893C133.311 57.2694 133.431 57.1494 133.431 57.0295C133.551 56.9096 133.551 56.7896 133.671 56.6697C133.791 56.6697 133.911 56.5497 134.031 56.5497C134.15 56.4298 134.27 56.4298 134.51 56.4298C134.63 56.4298 134.75 56.4298 134.99 56.5497C135.11 56.5497 135.23 56.6697 135.23 56.6697C135.35 56.7896 135.47 56.9096 135.47 57.0295C135.59 57.1494 135.59 57.2694 135.59 57.3893C135.71 57.5092 135.71 57.7491 135.71 57.8691V62.7865ZM134.51 54.3909C133.071 54.3909 132.112 54.7507 131.512 55.5902C131.032 56.3099 130.672 57.5092 130.672 58.9485V62.7865C130.672 64.2258 131.032 65.3052 131.512 66.1448C132.112 66.8644 133.071 67.3441 134.51 67.3441C135.83 67.3441 136.789 66.8644 137.389 66.1448C137.989 65.3052 138.228 64.2258 138.228 62.7865V58.9485C138.228 57.5092 137.989 56.3099 137.389 55.5902C136.789 54.7507 135.83 54.3909 134.51 54.3909Z" fill="white"/>
<path fill-rule="evenodd" clip-rule="evenodd" d="M150.702 50.0732H153.341V52.7119H150.702V50.0732ZM150.702 54.5109H153.341V67.2243H150.702V54.5109Z" fill="white"/>
<path d="M161.017 59.5482H158.618V57.989C158.618 57.7491 158.738 57.5092 158.738 57.2694C158.858 57.0295 158.978 56.7896 159.217 56.6697C159.337 56.5497 159.577 56.4298 159.817 56.4298C160.057 56.4298 160.297 56.5497 160.417 56.6697C160.657 56.7896 160.777 56.9096 160.777 57.1494C160.897 57.5092 161.017 57.7491 161.017 57.989V59.5482ZM163.295 57.3893C163.295 56.9096 163.175 56.5497 162.936 56.1899C162.816 55.8301 162.576 55.4703 162.216 55.2304C161.976 54.9906 161.616 54.7507 161.256 54.6307C160.777 54.3909 160.417 54.3909 159.817 54.3909C159.217 54.3909 158.738 54.5108 158.258 54.6307C157.778 54.8706 157.418 55.1105 157.179 55.3504C156.939 55.7102 156.699 56.07 156.579 56.5497C156.339 57.0295 156.219 57.5092 156.219 58.1089C156.099 58.5887 156.099 59.1884 156.099 59.7881C155.979 60.3878 155.979 60.8675 156.099 61.4672C156.099 62.1868 156.099 62.7865 156.219 63.2663C156.219 63.8659 156.339 64.3457 156.459 64.8255C156.699 65.4251 156.819 65.785 157.179 66.1448C157.418 66.5046 157.778 66.7445 158.258 66.9843C158.618 67.2242 159.217 67.3441 159.817 67.3441C161.017 67.3441 161.976 66.9843 162.576 66.2647C163.175 65.5451 163.535 64.5856 163.535 63.2663H161.136C161.017 63.6261 161.017 63.8659 161.017 63.9859C161.017 64.2258 160.897 64.4656 160.897 64.5856C160.777 64.8254 160.657 64.9454 160.417 65.0653C160.297 65.1853 160.057 65.3052 159.817 65.3052C159.577 65.3052 159.457 65.1853 159.217 65.0653L158.858 64.7055C158.858 64.5856 158.738 64.3457 158.738 64.1058C158.618 63.8659 158.618 63.6261 158.618 63.3862V62.6666C158.498 62.4267 158.498 62.0669 158.618 61.827V60.8675H163.655V60.5077C163.655 59.908 163.535 59.4282 163.535 58.9485C163.535 58.4687 163.415 57.989 163.295 57.3893Z" fill="white"/>
<path d="M172.531 62.0669C172.291 61.7071 172.171 61.4672 171.931 61.3473C171.691 61.1074 171.451 60.8675 171.211 60.6276L168.693 58.7086C168.333 58.4688 168.093 58.1089 168.093 57.7491C168.093 57.2694 168.213 57.0295 168.453 56.7896C168.573 56.5497 168.932 56.4298 169.292 56.4298C169.532 56.4298 169.772 56.5497 170.012 56.6697C170.252 56.6697 170.372 56.9096 170.612 57.1494C170.732 57.2694 170.851 57.5092 170.971 57.6292C170.971 57.8691 171.091 58.1089 171.211 58.3488L173.13 57.7491C173.01 57.2694 172.89 56.7896 172.651 56.4298C172.411 56.07 172.171 55.7102 171.931 55.3504C171.571 55.1105 171.211 54.8706 170.851 54.6307C170.372 54.5108 169.892 54.3909 169.292 54.3909C168.213 54.3909 167.253 54.6307 166.534 55.2304C165.934 55.8301 165.574 56.6697 165.574 57.7491C165.574 58.1089 165.574 58.3488 165.694 58.7086C165.814 58.9485 165.934 59.3083 166.174 59.5482C166.294 59.7881 166.534 59.908 166.774 60.1479C166.894 60.2678 167.133 60.5077 167.493 60.6276L169.892 62.5466C170.372 62.9064 170.612 63.3862 170.612 63.9859C170.612 64.3457 170.492 64.7055 170.252 64.9454C170.012 65.1853 169.772 65.3052 169.292 65.3052C168.573 65.3052 167.853 64.5856 167.493 63.3862L165.574 63.9859C165.814 64.9454 166.174 65.785 166.774 66.3846C167.493 66.9843 168.333 67.3441 169.292 67.3441C170.492 67.3441 171.331 66.9843 172.051 66.5046C172.77 65.9049 173.13 65.0653 173.13 63.9859C173.13 63.6261 173.01 63.2663 173.01 62.9064C172.89 62.5466 172.651 62.3068 172.531 62.0669Z" fill="white"/>
<path d="M3.7783 58.1091C3.65836 58.7088 3.41848 58.9486 2.93873 58.9486C2.33904 58.9486 2.09917 58.5888 2.09917 57.9891V57.0296C2.09917 56.5499 2.09917 56.1901 2.33905 56.0701C2.45898 55.8303 2.69886 55.7103 3.05867 55.7103H3.7783V58.1091ZM5.33749 53.0717H3.7783V54.2711H3.05867C2.69886 54.2711 2.45898 54.1511 2.33905 54.0312C2.09917 53.7913 2.09917 53.5514 2.09917 53.1916V52.472C2.09917 51.8723 2.33905 51.5125 2.8188 51.5125H4.7378V50.0732H2.8188C1.25961 50.0732 0.420044 50.9128 0.420044 52.5919V52.8318C0.420044 53.9112 0.779851 54.6309 1.49948 54.8707C0.779851 55.2306 0.420044 55.9502 0.420044 57.0296V58.1091C0.420044 59.6683 1.01973 60.3879 2.2191 60.3879C2.93873 60.3879 3.41849 60.148 3.7783 59.5483C3.7783 59.7882 3.7783 60.148 3.89823 60.3879H5.45743C5.33749 60.0281 5.33749 59.6683 5.33749 59.0686V55.7103H5.81724V54.2711H5.33749V53.0717Z" fill="white"/>
<path d="M13.0134 57.8692C13.0134 58.5888 12.7735 58.8287 12.1738 58.8287H11.2143V51.5125H12.1738C12.7735 51.5125 13.0134 51.8723 13.0134 52.472V57.8692ZM12.1738 50.0732H9.65515V60.3879H12.1738C13.853 60.3879 14.5726 59.4284 14.5726 57.7493V52.5919C14.5726 50.9128 13.853 50.0732 12.1738 50.0732Z" fill="white"/>
<path d="M16.0118 60.3879H20.4495V58.8287H17.691V55.8302H19.8498V54.391H17.691V51.5125H20.4495V50.0732H16.0118V60.3879Z" fill="white"/>
<path d="M1.97918 34.841V27.5248H2.81874C3.41843 27.5248 3.6583 27.7646 3.6583 28.4843V33.7615C3.6583 34.4812 3.41843 34.841 2.81874 34.841H1.97918ZM5.33743 33.7615V28.4843C5.33743 26.8051 4.49787 25.9656 2.93868 25.9656H0.300049V36.2802H2.93868C4.49787 36.2802 5.33743 35.4407 5.33743 33.7615Z" fill="white"/>
<path d="M11.2144 34.841H8.33592V31.8425H10.6147V30.2833H8.33592V27.5248H11.2144V25.9656H6.77673V36.2802H11.2144V34.841Z" fill="white"/>
<path d="M4.49792 19.0093C5.93717 19.0093 6.89668 18.6495 7.73624 17.8099C8.45587 17.0903 8.81568 16.0108 8.81568 14.5716V12.1728H6.05712V14.6915C6.05712 15.8909 5.57736 16.4906 4.61786 16.4906C3.65836 16.4906 3.17861 15.8909 3.17861 14.6915V5.21644C3.17861 4.01706 3.65836 3.41737 4.61786 3.41737C5.57736 3.41737 6.05712 4.01706 6.05712 5.21644V7.13544H8.81568V5.33638C8.81568 3.89712 8.45587 2.81768 7.73624 2.09806C6.89668 1.25849 5.93717 0.898682 4.49792 0.898682C3.17861 0.898682 2.09917 1.25849 1.37954 2.09806C0.659918 2.81768 0.420044 3.89712 0.420044 5.33638V14.5716C0.420044 16.0108 0.659918 17.0903 1.37954 17.8099C2.09917 18.6495 3.17861 19.0093 4.49792 19.0093Z" fill="#7DB928"/>
<path d="M32.9231 59.3083L30.0446 49.4734H26.3265V67.1042H29.0851V55.2304L32.5633 67.1042H35.4418V49.4734H32.9231V59.3083Z" fill="#7DB928"/>
<path d="M22.2487 35.0809L19.3702 25.366H15.6521V42.9968H18.4107V31.003L21.7689 42.9968H24.6474V25.366H22.2487V35.0809Z" fill="#7DB928"/>
<path d="M147.104 69.623C146.984 69.9828 146.624 70.2226 146.264 70.4625C145.784 70.7024 145.185 70.9423 144.585 70.9423C143.746 70.9423 143.026 70.5825 142.546 70.2226C142.306 69.9828 142.066 69.8628 141.946 69.623C141.827 69.3831 141.827 69.1432 141.827 68.9033V68.7834C141.827 68.4236 141.946 67.9438 142.186 67.584C142.426 67.2242 142.666 66.9843 142.906 66.8644H143.026C143.985 66.8644 144.705 66.8644 146.144 67.4641C146.864 67.704 147.104 68.1837 147.104 68.3036C147.344 68.4236 147.344 68.6635 147.344 68.9033C147.344 69.1432 147.224 69.3831 147.104 69.623ZM142.786 57.989C142.786 57.6292 142.906 57.3893 143.026 57.0295C143.146 56.7896 143.266 56.5497 143.506 56.4298C143.746 56.1899 143.985 56.07 144.225 56.07C144.585 56.07 144.825 56.1899 145.065 56.4298C145.305 56.5497 145.425 56.7896 145.545 57.0295C145.665 57.3893 145.665 57.6292 145.784 57.989V58.9485C145.784 60.7476 145.305 61.5871 144.225 61.5871C143.266 61.5871 142.666 60.7476 142.666 58.9485C142.666 58.5887 142.666 58.2289 142.786 57.989ZM149.503 68.9033C149.503 68.3036 149.383 67.7039 149.023 67.2242C148.663 66.5046 148.063 65.9049 147.224 65.5451C146.624 65.3052 146.024 65.1853 145.425 65.0653C145.185 65.0653 144.945 65.0653 144.705 64.9454H144.345C143.985 64.9454 143.746 64.8255 143.506 64.8255C143.266 64.8255 143.026 64.7055 142.906 64.5856L142.786 64.4656C142.666 64.4656 142.666 64.3457 142.666 64.2258V63.9859C142.666 63.8659 142.786 63.746 142.786 63.746C142.786 63.746 142.786 63.6261 142.906 63.5061L143.026 63.3862L144.225 63.5061H144.345C145.065 63.5061 145.784 63.2663 146.384 62.9064C146.984 62.5466 147.344 61.9469 147.584 61.3473C147.943 60.6276 148.063 59.7881 148.063 58.9485C148.063 58.5887 147.943 58.2289 147.943 57.7491C147.823 57.5092 147.823 57.2694 147.703 57.1494C147.703 56.9096 147.823 56.5497 148.063 56.5497C148.183 56.4298 148.303 56.4298 148.543 56.4298H149.263V54.3909H149.143C148.423 54.3909 147.823 54.7507 147.344 55.3504C147.104 55.5902 146.744 55.5902 146.624 55.3504C146.504 55.2304 146.384 55.1105 146.384 55.1105C146.144 54.8706 145.784 54.7507 145.425 54.6307C145.185 54.3909 144.705 54.3909 144.225 54.3909C143.506 54.3909 142.786 54.6307 142.186 54.9906C141.587 55.3504 141.227 55.9501 140.867 56.6697C140.627 57.2694 140.507 58.1089 140.507 58.9485C140.507 60.5077 140.867 61.7071 141.707 62.7865L141.587 62.9064C141.467 63.0264 141.347 63.1463 141.347 63.2663C141.347 63.2663 141.227 63.3862 141.107 63.5061C141.107 63.6261 140.987 63.746 140.987 63.8659C140.867 63.8659 140.867 63.9859 140.747 64.1058C140.747 64.2258 140.627 64.3457 140.627 64.4656C140.627 64.5856 140.507 64.7055 140.507 64.8255V65.1853C140.507 65.3052 140.507 65.5451 140.627 65.665C140.627 65.665 140.747 65.785 140.867 65.785C140.867 65.9049 141.107 66.0248 141.107 66.0248L140.867 66.1448C140.507 66.5046 140.267 66.8644 140.027 67.2242C139.788 67.7039 139.668 68.3036 139.668 68.9033C139.668 69.503 139.788 70.1027 140.027 70.5825C140.507 71.422 141.107 72.0217 141.946 72.3815C142.666 72.8613 143.626 73.1012 144.585 73.1012C145.904 73.1012 147.104 72.6214 147.943 71.9018C148.423 71.542 148.783 71.1821 149.023 70.5825C149.383 70.1027 149.503 69.503 149.503 68.9033Z" fill="white"/>
</g>
<defs>
<clipPath id="clip0_4_2872">
<rect width="172.83" height="72.2025" fill="white" transform="translate(0.300049 0.898682)"/>
</clipPath>
</defs>
</svg>
