<svg width="173" height="73" viewBox="0 0 173 73" fill="none" xmlns="http://www.w3.org/2000/svg">
<g clip-path="url(#clip0_15_8509)">
<path d="M12.9534 10.1138C12.9534 9.75397 12.9534 9.39416 13.0733 9.15428C13.0733 8.91441 13.0733 8.67453 13.1933 8.43466C13.3132 8.19478 13.4331 7.95491 13.5531 7.83497C13.793 7.71503 13.9129 7.59509 14.2727 7.59509C14.5126 7.59509 14.6325 7.71503 14.8724 7.83497C14.9923 7.95491 15.1123 8.19478 15.2322 8.43466C15.3521 8.67453 15.3521 8.91441 15.3521 9.15428C15.4721 9.39416 15.4721 9.63403 15.4721 9.99385V10.7135H12.9534V10.1138ZM10.5546 14.4315C10.6746 15.0312 10.7945 15.511 10.9144 16.1107C11.0344 16.5904 11.2743 17.0702 11.5141 17.31C11.754 17.6699 12.1138 17.9097 12.5936 18.1496C13.0733 18.3895 13.5531 18.5094 14.1528 18.5094C15.4721 18.5094 16.4316 18.1496 17.0313 17.43C17.631 16.8303 17.8708 15.7509 17.9908 14.4315H15.4721V15.1512C15.3521 15.391 15.3521 15.6309 15.2322 15.8708C15.1123 15.9907 14.9923 16.2306 14.8724 16.2306C14.7525 16.3505 14.5126 16.4705 14.2727 16.4705C14.0328 16.4705 13.7929 16.3505 13.673 16.2306C13.5531 16.2306 13.4331 15.9907 13.3132 15.8708C13.1933 15.7509 13.1933 15.511 13.0733 15.2711C13.0733 15.0312 12.9534 14.7914 12.9534 14.5515V12.0328H17.9908V10.1138C17.8708 9.63403 17.8708 9.15428 17.7509 8.67453C17.631 8.07484 17.511 7.71503 17.3911 7.35522C17.1512 6.9954 16.9113 6.63559 16.6715 6.39572C16.4316 6.15584 16.0718 5.91597 15.592 5.79603C15.2322 5.67609 14.7525 5.55615 14.2727 5.55615C13.673 5.55615 13.0733 5.67609 12.7135 5.79603C12.2338 6.0359 11.8739 6.27578 11.6341 6.63559C11.2743 6.87547 11.1543 7.23528 10.9144 7.71503C10.7945 8.19478 10.6746 8.67453 10.5546 9.27422C10.5546 9.75397 10.4347 10.3537 10.4347 10.9533V12.6325C10.4347 13.3521 10.5546 13.9518 10.5546 14.4315Z" fill="white"/>
<path d="M27.9455 18.2695V7.59509C27.9455 6.99541 27.8255 6.51565 27.4657 6.15584C27.1059 5.79603 26.7461 5.55615 26.1464 5.55615C25.6667 5.55615 25.3069 5.67609 24.8271 5.79603C24.4673 5.91597 24.1075 6.15584 23.8676 6.27578C23.6277 6.51565 23.2679 6.75553 22.9081 7.11534V5.67609H20.3894V18.2695H22.9081V8.31472C23.148 8.19478 23.2679 8.07484 23.3878 7.95491C23.5078 7.95491 23.6277 7.83497 23.8676 7.71503C24.1075 7.71503 24.3474 7.59509 24.4673 7.59509C24.947 7.59509 25.1869 7.71503 25.3068 7.95491C25.4268 8.07484 25.4268 8.43466 25.4268 8.91441V18.2695H27.9455Z" fill="white"/>
<path d="M33.9424 1.3584H31.4237V5.67616H30.1044V7.59516H31.4237V15.3911C31.4237 16.4705 31.6636 17.1902 32.1433 17.7899C32.5031 18.2696 33.2227 18.5095 34.3022 18.5095C34.662 18.5095 35.1418 18.5095 35.8614 18.3896V16.3506C35.5016 16.3506 35.1418 16.4705 35.0218 16.4705C34.5421 16.4705 34.3022 16.3506 34.1823 16.1107C34.0623 15.8709 33.9424 15.511 33.9424 14.9114V7.59516H35.8614V5.67616H33.9424V1.3584Z" fill="white"/>
<path d="M40.7788 9.87391C40.7788 9.27422 40.8988 8.91441 41.2586 8.5546C41.6184 8.31472 41.9782 8.07484 42.5779 8.07484C43.0576 8.07484 43.4175 8.19478 43.8972 8.43466V5.55615H43.5374C42.9377 5.55615 42.338 5.79603 41.8583 6.15584C41.3785 6.51565 41.0187 6.87547 40.7788 7.35522V5.67609H38.2601V18.2695H40.7788V9.87391Z" fill="white"/>
<path d="M47.8552 10.1138C47.8552 9.75397 47.9752 9.39416 47.9752 9.15428C47.9752 8.91441 48.0951 8.67453 48.0951 8.43466C48.215 8.19478 48.335 7.95491 48.5749 7.83497C48.6948 7.71503 48.9347 7.59509 49.1746 7.59509C49.4144 7.59509 49.6543 7.71503 49.7742 7.83497C50.0141 7.95491 50.134 8.19478 50.134 8.43466C50.254 8.67453 50.254 8.91441 50.3739 9.15428V10.7135H47.8552V10.1138ZM49.1746 18.5094C50.3739 18.5094 51.3334 18.1496 51.9331 17.43C52.5328 16.8303 52.8926 15.7509 52.8926 14.4315H50.3739V15.1512C50.3739 15.391 50.254 15.6309 50.134 15.8708C50.134 15.9907 50.0141 16.2306 49.7742 16.2306C49.6543 16.3505 49.4144 16.4705 49.1746 16.4705C48.9347 16.4705 48.8147 16.3505 48.5749 16.2306C48.4549 16.2306 48.335 15.9907 48.215 15.8708C48.215 15.7509 48.0951 15.511 48.0951 15.2711C47.9752 15.0312 47.9752 14.7914 47.9752 14.5515C47.9752 14.3116 47.8552 14.0717 47.8552 13.8319V12.0328H52.8926V10.1138C52.8926 9.63403 52.7727 9.15428 52.6527 8.67453C52.6527 8.07484 52.4129 7.71503 52.2929 7.35522C52.0531 6.9954 51.9331 6.63559 51.5733 6.39572C51.3334 6.15584 50.9736 5.91597 50.6138 5.79603C50.1341 5.67609 49.6543 5.55615 49.1746 5.55615C48.5749 5.55615 48.0951 5.67609 47.6154 5.79603C47.1356 6.0359 46.7758 6.27578 46.5359 6.63559C46.296 6.87547 46.0562 7.23528 45.9362 7.71503C45.6964 8.19478 45.5764 8.67453 45.5764 9.27422C45.4565 9.75397 45.4565 10.3537 45.3365 10.9533V12.6325C45.4565 13.3521 45.4565 13.9518 45.4565 14.4315C45.5764 15.0312 45.6964 15.511 45.8163 16.1107C46.0562 16.5904 46.1761 17.0702 46.5359 17.31C46.7758 17.6699 47.1356 17.9097 47.6154 18.1496C47.9752 18.3895 48.5749 18.5094 49.1746 18.5094Z" fill="white"/>
<path d="M32.0235 39.6185C32.0235 40.0983 31.5437 40.8179 30.7042 40.8179C29.8646 40.8179 29.5048 40.0983 29.5048 39.0188C29.5048 38.779 29.5048 38.5391 29.6247 38.2992C29.6247 38.0593 29.7447 37.9394 29.8646 37.8195C29.9845 37.5796 30.1045 37.4596 30.3443 37.3397C30.5842 37.0998 30.7042 36.9799 30.8241 36.86C31.064 36.74 31.1839 36.6201 31.4238 36.5001C31.6637 36.3802 31.9035 36.2603 32.0235 36.1403V39.6185ZM33.4627 30.7431C32.863 30.0235 31.9035 29.6637 30.7042 29.6637C29.5048 29.6637 28.6652 30.0235 27.9456 30.7431C27.3459 31.4628 26.9861 32.4223 26.9861 33.6216H29.5048V33.3818C29.5048 32.7821 29.6247 32.4223 29.7447 32.0625C29.9845 31.8226 30.3443 31.7026 30.7042 31.7026C31.1839 31.7026 31.5437 31.8226 31.6637 32.1824C31.9035 32.5422 32.0235 33.022 32.0235 33.6216V34.5811C31.9035 34.5811 31.7836 34.5811 31.6637 34.7011C31.064 34.941 30.5842 35.1808 30.2244 35.3008C29.9845 35.4207 29.6247 35.5406 29.025 35.9005C28.5453 36.2603 28.1855 36.5001 27.9456 36.86C27.7057 37.0998 27.4658 37.5796 27.226 38.0593C27.106 38.5391 26.9861 39.1388 26.9861 39.7385C26.9861 40.4581 27.226 41.1777 27.7057 41.7774C28.1855 42.3771 28.6652 42.617 29.7447 42.617C31.3038 42.617 31.9035 41.8973 32.0235 41.6575V42.497H34.5422V33.6216C34.5422 32.5422 34.1823 31.5827 33.4627 30.7431Z" fill="white"/>
<path d="M42.8178 63.8459C42.8178 64.3257 42.338 65.0453 41.4985 65.0453C40.6589 65.0453 40.2991 64.2058 40.2991 63.2463C40.2991 62.8864 40.2991 62.7665 40.419 62.5266C40.419 62.2868 40.539 62.0469 40.6589 61.9269C40.7788 61.807 40.8988 61.5671 41.1386 61.4472C41.3785 61.3272 41.4985 61.0874 41.6184 61.0874C41.8583 60.9674 41.9782 60.8475 42.2181 60.7276C42.458 60.4877 42.6978 60.3677 42.8178 60.3677V63.8459ZM44.257 54.9706C43.6573 54.2509 42.6978 53.8911 41.4985 53.8911C40.2991 53.8911 39.4595 54.2509 38.7399 54.9706C38.1402 55.6902 37.7804 56.6497 37.7804 57.8491H40.2991V57.4892C40.2991 57.0095 40.419 56.5297 40.539 56.2899C40.7788 55.9301 41.1386 55.8101 41.4985 55.8101C41.9782 55.8101 42.338 56.05 42.458 56.4098C42.6978 56.6497 42.8178 57.2494 42.8178 57.8491V58.6886C42.6978 58.8086 42.5779 58.8086 42.458 58.8086C41.8583 59.1684 41.3785 59.2883 41.0187 59.4082C40.7788 59.5282 40.419 59.7681 39.8193 60.1279C39.3396 60.3677 38.9798 60.7276 38.7399 60.9674C38.5 61.3272 38.2601 61.6871 38.0203 62.1668C37.7804 62.6466 37.7804 63.2463 37.7804 63.8459C37.7804 64.5656 38.0203 65.2852 38.5 65.8849C38.9798 66.4846 39.4595 66.8444 40.539 66.8444C42.0982 66.8444 42.6978 66.1248 42.8178 65.8849V66.6045H45.3365V57.8491C45.3365 56.6497 44.9767 55.6902 44.257 54.9706Z" fill="white"/>
<path d="M39.8194 32.5422C39.9393 32.3023 40.1792 32.1824 40.1792 32.1824C40.2991 32.0625 40.539 31.9425 40.6589 31.9425C40.8988 31.8226 41.1387 31.8226 41.3785 31.8226C41.7384 31.8226 41.9782 31.8226 42.0982 32.0625C42.2181 32.3023 42.3381 32.5422 42.3381 33.022V42.497H44.8567V31.7026C44.8567 31.2229 44.6169 30.7431 44.2571 30.2634C44.0172 29.9036 43.5374 29.6637 43.0577 29.6637C42.5779 29.6637 42.0982 29.7836 41.6184 29.9036C41.2586 30.1434 40.8988 30.2634 40.6589 30.5033C40.419 30.6232 40.1792 30.8631 39.8194 31.2229V29.9036H37.3007V42.497H39.8194V32.5422Z" fill="white"/>
<path d="M49.8942 34.3413V33.2618C49.8942 33.022 50.0141 32.902 50.0141 32.7821C50.0141 32.6621 50.134 32.5422 50.134 32.4223C50.214 32.2623 50.294 32.1424 50.3739 32.0625C50.4939 31.9425 50.6138 31.9425 50.7337 31.8226H51.5733C51.7332 31.9025 51.8532 31.9825 51.9331 32.0625C52.0531 32.1824 52.173 32.1824 52.173 32.4223C52.2929 32.5422 52.2929 32.6621 52.2929 32.7821C52.2929 32.902 52.4129 33.022 52.4129 33.2618V39.1388C52.4129 39.3786 52.2929 39.4986 52.2929 39.6185C52.2929 39.7385 52.2929 39.8584 52.173 39.9783C52.173 40.0983 52.0531 40.2182 51.9331 40.3382C51.8132 40.3382 51.8132 40.4581 51.5733 40.4581C51.4534 40.578 51.3334 40.578 51.2135 40.578C50.9736 40.578 50.8537 40.578 50.7337 40.4581C50.6138 40.4581 50.4939 40.3382 50.3739 40.3382C50.254 40.2182 50.254 40.0983 50.134 39.9783C50.134 39.8584 50.0141 39.7385 50.0141 39.6185C50.0141 39.4986 49.8942 39.3786 49.8942 39.1388V34.3413ZM51.2135 42.617C52.5328 42.617 53.4923 42.2572 54.092 41.4176C54.6917 40.698 54.9316 39.4986 54.9316 38.0593V34.3413C54.9316 32.7821 54.6917 31.7026 54.092 30.8631C53.4923 30.1434 52.5328 29.6637 51.2135 29.6637C49.7742 29.6637 48.8147 30.1434 48.215 30.8631C47.6154 31.7026 47.3755 32.7821 47.3755 34.3413V38.0593C47.3755 39.4986 47.6154 40.698 48.215 41.4176C48.8147 42.2572 49.7742 42.617 51.2135 42.617Z" fill="white"/>
<path d="M60.9285 40.578C60.0889 40.578 59.4892 39.9783 59.0095 38.659L57.0905 39.3787C57.3303 40.3382 57.8101 41.0578 58.4098 41.7774C59.0095 42.3771 59.849 42.617 60.9285 42.617C62.0079 42.617 62.9674 42.3771 63.687 41.7774C64.2867 41.1777 64.6465 40.4581 64.6465 39.3787C64.6465 38.8989 64.6465 38.5391 64.5266 38.2992C64.4067 37.9394 64.2867 37.5796 64.0468 37.3397C63.9269 37.0998 63.687 36.86 63.5671 36.6201C63.3272 36.3802 63.0873 36.2603 62.8475 36.0204L60.3288 34.1014C59.849 33.7416 59.6091 33.3818 59.6091 33.022C59.6091 32.6621 59.7291 32.3023 59.969 32.0625C60.2088 31.9425 60.4487 31.8226 60.9285 31.8226C61.1683 31.8226 61.4082 31.8226 61.6481 31.9425C61.768 32.0625 62.0079 32.1824 62.1278 32.4223C62.2478 32.6621 62.3677 32.902 62.4876 33.022C62.6076 33.2618 62.7275 33.3818 62.8475 33.6216L64.6465 33.022C64.5266 32.5422 64.4067 32.1824 64.1668 31.7026C64.0468 31.3428 63.807 30.983 63.4472 30.7431C63.2073 30.3833 62.8475 30.1434 62.3677 30.0235C61.888 29.7836 61.4082 29.6637 60.9285 29.6637C59.7291 29.6637 58.8895 30.0235 58.1699 30.6232C57.4503 31.1029 57.0905 31.9425 57.0905 33.022C57.0905 33.3818 57.2104 33.7416 57.3303 33.9815C57.3303 34.3413 57.5702 34.5811 57.6901 34.821C57.93 35.0609 58.1699 35.3008 58.2898 35.4207C58.5297 35.6606 58.7696 35.7805 59.0095 36.0204L61.5282 37.8195C62.0079 38.2992 62.1278 38.779 62.1278 39.3787C62.1278 39.7385 62.0079 40.0983 61.888 40.2182C61.6481 40.4581 61.2883 40.578 60.9285 40.578Z" fill="white"/>
<path fill-rule="evenodd" clip-rule="evenodd" d="M75.9207 29.7837H78.5593V42.4971H75.9207V29.7837ZM75.9207 25.4659H78.5593V28.1046H75.9207V25.4659Z" fill="white"/>
<path d="M83.8366 34.2213C83.8366 33.8615 83.8366 33.6216 83.9565 33.3818C83.9565 33.1419 83.9565 32.7821 84.0764 32.5422C84.1964 32.3023 84.3163 32.1824 84.4362 31.9425C84.6761 31.8226 84.916 31.8226 85.1559 31.8226C85.3957 31.8226 85.6356 31.8226 85.7556 31.9425C85.8755 32.0625 85.9954 32.3023 86.1154 32.5422C86.2353 32.7821 86.2353 33.022 86.3552 33.2618V34.941H83.8366V34.2213ZM87.9144 41.6575C88.5141 40.9378 88.8739 39.8584 88.8739 38.5391L86.3552 38.659V39.3787C86.2353 39.6185 86.2353 39.7385 86.1154 39.9783C86.1154 40.2182 85.9954 40.3382 85.7556 40.4581C85.6356 40.578 85.3957 40.578 85.1559 40.578C84.916 40.578 84.6761 40.578 84.5562 40.4581C84.4362 40.3382 84.3163 40.2182 84.1964 40.0983C84.0764 39.8584 84.0764 39.6185 83.9565 39.4986C83.9565 39.2587 83.9565 39.0188 83.8366 38.779V36.1403H88.8739V34.2213C88.754 33.7416 88.754 33.2618 88.6341 32.7821C88.5141 32.3023 88.3942 31.8226 88.2742 31.4628C88.0344 31.2229 87.7945 30.8631 87.5546 30.6232C87.3147 30.2634 86.9549 30.0235 86.5951 29.9036C86.1154 29.7836 85.6356 29.6637 85.1559 29.6637C84.5562 29.6637 84.0764 29.7836 83.5967 30.0235C83.1169 30.1434 82.7571 30.3833 82.5172 30.7431C82.2774 31.103 82.0375 31.4628 81.7976 31.9425C81.6777 32.4223 81.5577 32.902 81.4378 33.3818C81.4378 33.8615 81.3179 34.4612 81.3179 35.1808V36.74C81.3179 37.4596 81.4378 38.0593 81.4378 38.659C81.5577 39.1388 81.6777 39.7385 81.7976 40.2182C81.9176 40.698 82.1574 41.1777 82.3973 41.5375C82.7571 41.8973 83.1169 42.1372 83.4767 42.3771C83.9565 42.497 84.4362 42.617 85.1559 42.617C86.3553 42.617 87.3147 42.2572 87.9144 41.6575Z" fill="white"/>
<path d="M95.4704 31.8226C95.8302 31.8226 96.0701 31.8226 96.19 32.0625C96.31 32.3023 96.31 32.5422 96.31 33.022V42.497H98.8287V31.7026C98.8287 31.2229 98.7087 30.7431 98.3489 30.2634C97.9891 29.9036 97.6293 29.6637 97.0296 29.6637C96.5499 29.6637 96.19 29.7836 95.7103 29.9036C95.3505 30.1434 94.9907 30.2634 94.7508 30.5033C94.5109 30.6232 94.1511 30.8631 93.7913 31.2229V29.9036H91.2726V42.497H93.7913V32.5422C94.0312 32.3023 94.1511 32.1824 94.271 32.1824C94.391 32.0625 94.5109 31.9425 94.7508 31.9425C94.9907 31.8226 95.2305 31.8226 95.4704 31.8226Z" fill="white"/>
<path d="M107.704 41.5375C107.944 41.0578 108.184 40.698 108.304 40.0983C108.544 39.6185 108.544 39.0188 108.544 38.4192H106.025V39.6185C105.905 39.8584 105.905 39.9783 105.785 40.0983C105.665 40.2182 105.545 40.3382 105.425 40.4581C105.185 40.578 105.065 40.578 104.826 40.578C104.586 40.578 104.346 40.578 104.226 40.3382C103.986 40.2182 103.866 40.0983 103.866 39.7385C103.746 39.4986 103.626 39.2587 103.626 39.0188C103.626 38.779 103.506 38.4191 103.506 38.0593V34.3413C103.506 33.9815 103.626 33.6216 103.626 33.3818C103.626 33.1419 103.746 32.7821 103.746 32.5422C103.866 32.3023 103.986 32.0625 104.226 31.9425C104.346 31.7026 104.586 31.7026 104.826 31.7026C105.065 31.7026 105.305 31.7026 105.425 31.8226C105.665 31.9425 105.785 32.1824 105.785 32.4223C105.905 32.6621 106.025 32.902 106.025 33.1419V33.9815H108.544C108.544 32.5422 108.304 31.4628 107.704 30.7431C107.104 30.0235 106.145 29.6637 104.826 29.6637C104.226 29.6637 103.626 29.7836 103.266 30.0235C102.787 30.2634 102.427 30.5033 102.187 30.8631C101.947 31.1029 101.707 31.5827 101.467 32.0625C101.347 32.5422 101.227 33.022 101.227 33.6216C101.108 34.1014 101.108 34.7011 101.108 35.3008C100.988 35.9005 100.988 36.5001 101.108 36.9799C101.108 37.6995 101.108 38.2992 101.227 38.779C101.227 39.2587 101.347 39.7385 101.467 40.3382C101.707 40.8179 101.947 41.1777 102.187 41.5375C102.427 41.8973 102.787 42.1372 103.266 42.3771C103.626 42.497 104.226 42.617 104.826 42.617C105.425 42.617 106.025 42.497 106.505 42.3771C106.984 42.1372 107.464 41.8973 107.704 41.5375Z" fill="white"/>
<path d="M113.101 34.2213V33.3818C113.221 33.1419 113.221 32.7821 113.341 32.5422C113.341 32.3023 113.581 32.1824 113.701 31.9425C113.821 31.8226 114.061 31.8226 114.301 31.8226C114.541 31.8226 114.78 31.8226 115.02 31.9425C115.14 32.0625 115.26 32.3023 115.38 32.5422C115.38 32.7821 115.5 33.022 115.5 33.2618C115.5 33.5017 115.62 33.8615 115.62 34.2213V34.941H113.101V34.2213ZM117.059 41.6575C117.659 40.9378 118.019 39.8584 118.139 38.5391L115.62 38.659C115.62 38.8989 115.62 39.1388 115.5 39.3787C115.5 39.6185 115.5 39.7385 115.38 39.9783C115.26 40.2182 115.14 40.3382 115.02 40.4581C114.78 40.578 114.661 40.578 114.301 40.578C114.181 40.578 113.941 40.578 113.821 40.4581C113.701 40.3382 113.581 40.2182 113.461 40.0983C113.341 39.8584 113.341 39.6185 113.221 39.4986C113.221 39.2587 113.101 39.0188 113.101 38.779V36.1403H118.139V35.9005C118.139 35.3008 118.139 34.7011 118.019 34.2213C118.019 33.7416 118.019 33.2618 117.899 32.7821C117.779 32.3023 117.659 31.8226 117.419 31.4628C117.299 31.2229 117.059 30.8631 116.819 30.6232C116.46 30.2634 116.22 30.0235 115.74 29.9036C115.38 29.7836 114.9 29.6637 114.301 29.6637C113.701 29.6637 113.221 29.7836 112.742 30.0235C112.382 30.1434 112.022 30.3833 111.782 30.7431C111.422 31.103 111.182 31.4628 111.062 31.9425C110.942 32.4223 110.823 32.902 110.703 33.3818C110.583 33.8615 110.583 34.4612 110.583 35.1808V36.74C110.583 37.4596 110.583 38.0593 110.703 38.659C110.703 39.1388 110.823 39.7385 111.062 40.2182C111.182 40.698 111.422 41.1777 111.662 41.5375C111.902 41.8973 112.262 42.1372 112.742 42.3771C113.221 42.497 113.701 42.617 114.301 42.617C115.62 42.617 116.46 42.2572 117.059 41.6575Z" fill="white"/>
<path d="M127.614 39.3787C127.614 38.8989 127.614 38.5391 127.494 38.2992C127.374 37.9394 127.254 37.5796 127.014 37.3397C126.894 37.0998 126.654 36.86 126.414 36.6201C126.294 36.3802 126.055 36.2603 125.695 36.0204L123.176 34.1014C122.816 33.7416 122.576 33.3818 122.576 33.022C122.576 32.6621 122.696 32.3023 122.936 32.0625C123.176 31.9425 123.416 31.8226 123.896 31.8226C124.136 31.8226 124.375 31.8226 124.495 31.9425C124.735 32.0625 124.975 32.1824 125.095 32.4223C125.215 32.6621 125.335 32.902 125.455 33.022C125.575 33.2618 125.695 33.3818 125.695 33.6216L127.614 33.022C127.494 32.5422 127.374 32.1824 127.134 31.7026C127.014 31.3428 126.774 30.983 126.414 30.7431C126.175 30.3833 125.815 30.1434 125.335 30.0235C124.855 29.7836 124.375 29.6637 123.896 29.6637C122.696 29.6637 121.737 30.0235 121.137 30.6232C120.418 31.1029 120.058 31.9425 120.058 33.022C120.058 33.3818 120.178 33.7416 120.178 33.9815C120.298 34.3413 120.418 34.5811 120.657 34.821C120.897 35.0609 121.017 35.3008 121.257 35.4207C121.497 35.6606 121.617 35.7805 121.977 36.0204L124.495 37.8195C124.855 38.2992 125.095 38.779 125.095 39.3787C125.095 39.7385 124.975 40.0983 124.735 40.2182C124.495 40.4581 124.256 40.578 123.896 40.578C123.056 40.578 122.456 39.9783 121.977 38.659L120.058 39.3787C120.298 40.3382 120.777 41.0578 121.377 41.7774C121.977 42.3771 122.816 42.617 123.896 42.617C124.975 42.617 125.935 42.3771 126.534 41.7774C127.254 41.1777 127.614 40.4581 127.614 39.3787Z" fill="white"/>
<path d="M53.8521 53.8911C53.3723 53.8911 52.8926 54.011 52.4129 54.131C52.053 54.2509 51.6932 54.4908 51.4533 54.6107C51.2135 54.8506 50.9736 55.0905 50.6138 55.4503V54.011H48.0951V66.6045H50.6138V56.6497C50.7337 56.5297 50.9736 56.4098 50.9736 56.2899C51.0935 56.2899 51.3334 56.1699 51.4533 56.05C51.6932 55.9301 51.9331 55.9301 52.173 55.9301C52.5328 55.9301 52.7727 56.05 52.8926 56.2899C53.0125 56.4098 53.1325 56.7696 53.1325 57.2494V66.6045H55.6512V55.9301C55.6512 55.3304 55.4113 54.8506 55.0515 54.4908C54.8116 54.131 54.3318 53.8911 53.8521 53.8911Z" fill="white"/>
<path d="M63.2072 62.2868V63.2463C63.2072 63.4861 63.0872 63.6061 63.0872 63.726C63.0872 63.8459 63.0872 63.9659 62.9673 64.2058C62.9673 64.3257 62.8474 64.4456 62.7274 64.4456C62.6475 64.5256 62.5275 64.6055 62.3676 64.6855C62.2477 64.6855 62.1277 64.8054 62.0078 64.8054C61.7679 64.8054 61.648 64.6855 61.5281 64.6855C61.4081 64.5656 61.2882 64.5656 61.1682 64.4456C61.0483 64.4456 60.9284 64.3257 60.9284 64.2058C60.8084 63.9659 60.8084 63.8459 60.8084 63.726C60.8084 63.6061 60.6885 63.4861 60.6885 63.2463V57.3693C60.6885 57.2494 60.8084 57.0095 60.8084 56.8896C60.8084 56.7696 60.8084 56.6497 60.9284 56.5297C60.9284 56.4098 61.0483 56.2899 61.1682 56.1699C61.2882 56.1699 61.4081 56.05 61.5281 56.05C61.648 55.9301 61.7679 55.9301 62.0078 55.9301C62.1277 55.9301 62.2477 55.9301 62.3676 56.05C62.6075 56.05 62.6075 56.1699 62.7274 56.1699C62.8474 56.2899 62.9673 56.4098 62.9673 56.5297C63.0872 56.6497 63.0872 56.7696 63.0872 56.8896C63.0872 57.0095 63.2072 57.2494 63.2072 57.3693V62.2868ZM62.0078 53.8911C60.5685 53.8911 59.609 54.2509 59.0094 55.0905C58.4097 55.8101 58.1698 57.0095 58.1698 58.4487V62.2868C58.1698 63.726 58.4097 64.8054 59.0094 65.645C59.609 66.3646 60.5685 66.8444 62.0078 66.8444C63.3271 66.8444 64.2866 66.3646 64.8863 65.645C65.486 64.8054 65.7259 63.726 65.7259 62.2868V58.4487C65.7259 57.0095 65.486 55.8101 64.8863 55.0905C64.2866 54.2509 63.3271 53.8911 62.0078 53.8911Z" fill="white"/>
<path d="M71.6029 49.6934H69.0842V54.0111H67.7649V55.9301H69.0842V63.7261C69.0842 64.8055 69.3241 65.5251 69.6839 66.0049C70.1636 66.6046 70.8833 66.8445 71.8428 66.8445C72.3225 66.8445 72.8023 66.7245 73.402 66.7245V64.6856C73.0422 64.6856 72.8023 64.8055 72.5624 64.8055C72.2026 64.8055 71.8428 64.6856 71.7228 64.4457C71.6029 64.2058 71.6029 63.846 71.6029 63.2463V55.9301H73.402V54.0111H71.6029V49.6934Z" fill="white"/>
<path d="M80.5982 59.0484H78.0795V58.4487C78.0795 58.0889 78.1994 57.7291 78.1994 57.4892C78.1994 57.2494 78.3194 57.0095 78.3194 56.7696C78.4393 56.5297 78.5592 56.2899 78.7991 56.1699C78.9191 56.05 79.1589 55.9301 79.3988 55.9301C79.6387 55.9301 79.8786 56.05 79.9985 56.1699C80.2384 56.2899 80.3583 56.4098 80.3583 56.6497C80.4782 57.0095 80.4782 57.2494 80.5982 57.4892V59.0484ZM82.877 56.8896C82.877 56.4098 82.6371 56.05 82.5172 55.6902C82.2773 55.3304 82.1574 54.9706 81.7976 54.7307C81.5577 54.4908 81.1979 54.2509 80.838 54.131C80.3583 53.8911 79.8786 53.8911 79.3988 53.8911C78.7991 53.8911 78.3194 54.011 77.8396 54.131C77.3599 54.3709 77.0001 54.6107 76.7602 54.8506C76.5203 55.2104 76.2804 55.5702 76.1605 56.05C75.9206 56.5297 75.8007 57.0095 75.8007 57.6092C75.6807 58.0889 75.6807 58.6886 75.5608 59.2883V60.9674C75.6807 61.6871 75.6807 62.2867 75.6807 62.7665C75.8007 63.3662 75.9206 63.8459 76.0406 64.3257C76.2804 64.9254 76.4004 65.2852 76.7602 65.645C77.0001 66.0048 77.3599 66.2447 77.8396 66.4846C78.1994 66.7244 78.7991 66.8444 79.3988 66.8444C80.5982 66.8444 81.5577 66.4846 82.1574 65.7649C82.7571 65.0453 83.1169 64.0858 83.1169 62.7665H80.5982V63.4861C80.5982 63.726 80.4782 63.9659 80.3583 64.0858C80.3583 64.3257 80.2384 64.4456 79.9985 64.5656C79.8786 64.6855 79.6387 64.8054 79.3988 64.8054C79.1589 64.8054 79.039 64.6855 78.7991 64.5656L78.4393 64.2058C78.4393 64.0858 78.3194 63.8459 78.3194 63.6061C78.1994 63.3662 78.1994 63.1263 78.1994 62.8864C78.1994 62.6466 78.0795 62.4067 78.0795 62.1668V60.3677H83.1169V58.4487C83.1169 57.969 82.9969 57.4892 82.877 56.8896Z" fill="white"/>
<path d="M68.7244 33.3818C68.8443 33.1419 68.8443 32.7821 68.9643 32.5422C69.0842 32.3023 69.2041 32.0625 69.3241 31.9425C69.564 31.7026 69.6839 31.7026 69.9238 31.7026C70.1636 31.7026 70.4035 31.7026 70.6434 31.8226C70.7633 31.9425 70.8833 32.1824 71.0032 32.4223C71.0032 32.6621 71.1231 32.902 71.1231 33.1419C71.2431 33.3818 71.2431 33.6216 71.2431 33.9815H73.7618C73.6418 32.5422 73.402 31.4628 72.8023 30.7431C72.2026 30.0235 71.2431 29.6637 69.9238 29.6637C69.3241 29.6637 68.8443 29.7836 68.3646 30.0235C67.8848 30.2634 67.525 30.5033 67.2851 30.8631C67.0453 31.1029 66.8054 31.5827 66.6855 32.0625C66.4456 32.5422 66.3256 33.022 66.3256 33.6216C66.2057 34.1014 66.2057 34.7011 66.2057 35.3008V36.9799C66.2057 37.6995 66.2057 38.2992 66.3256 38.779C66.3256 39.2587 66.4456 39.7385 66.6855 40.3382C66.8054 40.8179 67.0453 41.1777 67.2851 41.5375C67.525 41.8973 67.8848 42.1372 68.3646 42.3771C68.8443 42.497 69.3241 42.617 69.9238 42.617C70.6434 42.617 71.2431 42.497 71.7228 42.3771C72.2026 42.1372 72.5624 41.8973 72.8023 41.5375C73.1621 41.0578 73.402 40.698 73.5219 40.0983C73.6418 39.6185 73.7618 39.0188 73.7618 38.4192H71.2431V39.0188C71.2431 39.2587 71.1231 39.3786 71.1231 39.6185C71.0032 39.8584 71.0032 39.9783 70.8833 40.0983C70.7633 40.2182 70.6434 40.3382 70.5235 40.4581C70.4035 40.578 70.1636 40.578 69.9238 40.578C69.6839 40.578 69.564 40.578 69.3241 40.3382C69.2041 40.2182 69.0842 40.0983 68.9643 39.8584C68.8443 39.4986 68.8443 39.2587 68.7244 39.0188V38.0593C68.6044 36.3802 68.6044 35.1808 68.7244 34.3413V33.3818Z" fill="white"/>
<path d="M87.5545 57.4892C87.5545 57.2494 87.6745 57.0095 87.6745 56.6497C87.7944 56.4098 87.9143 56.1699 88.1542 56.05C88.2742 55.9301 88.514 55.8101 88.7539 55.8101C88.9938 55.8101 89.2337 55.9301 89.3536 56.05C89.5935 56.1699 89.7134 56.2899 89.7134 56.5297C89.8333 56.7696 89.8333 57.0095 89.9533 57.2494V58.0889H92.472C92.472 56.7696 92.1122 55.6902 91.6324 54.9706C91.0327 54.2509 90.0732 53.8911 88.7539 53.8911C88.1542 53.8911 87.5545 54.011 87.1947 54.131C86.715 54.3709 86.3551 54.6107 86.1153 54.9706C85.7555 55.3304 85.6355 55.6902 85.3957 56.1699C85.2757 56.7696 85.1558 57.2494 85.0358 57.7291C85.0358 58.2089 85.0358 58.8086 84.9159 59.5282V61.2073C85.0358 61.807 85.0358 62.4067 85.0358 62.8864C85.1558 63.4861 85.2757 63.9659 85.3957 64.4456C85.6355 64.9254 85.7555 65.4051 86.1153 65.7649C86.3551 66.0048 86.715 66.3646 87.1947 66.4846C87.5545 66.7244 88.1542 66.8444 88.7539 66.8444C89.3536 66.8444 89.9533 66.7244 90.433 66.4846C90.9128 66.3646 91.2726 66.0048 91.6324 65.645C91.8723 65.2852 92.1122 64.8054 92.2321 64.3257C92.352 63.8459 92.472 63.2463 92.472 62.5266H89.9533V63.2463C89.9533 63.3662 89.9533 63.6061 89.8333 63.8459C89.8333 63.9659 89.7134 64.2058 89.7134 64.3257C89.5935 64.4456 89.4735 64.5656 89.3536 64.5656C89.1137 64.6855 88.9938 64.8054 88.7539 64.8054C88.514 64.8054 88.2742 64.6855 88.1542 64.5656C87.9143 64.4456 87.7944 64.2058 87.6745 63.9659C87.6745 63.726 87.5545 63.4861 87.5545 63.1263C87.4346 62.8864 87.4346 62.5266 87.4346 62.1668V58.5687C87.4346 58.2089 87.4346 57.8491 87.5545 57.4892Z" fill="white"/>
<path d="M100.388 53.8911C99.9081 53.8911 99.5483 54.011 99.0686 54.131C98.7087 54.2509 98.3489 54.4908 98.109 54.6107C97.8692 54.8506 97.5094 55.0905 97.1496 55.4503V48.9736H94.6309V66.6045H97.1496V56.6496C97.7492 56.1699 98.3489 55.93 98.8287 55.93C99.1885 55.93 99.4284 56.05 99.5483 56.2898C99.6682 56.4098 99.6683 56.7696 99.6683 57.2493V66.6045H102.187V55.93C102.187 55.3303 102.067 54.8506 101.707 54.4908C101.347 54.131 100.988 53.8911 100.388 53.8911Z" fill="white"/>
<path d="M110.822 53.8911C110.343 53.8911 109.863 54.011 109.383 54.131C109.023 54.2509 108.664 54.4908 108.424 54.6107C108.184 54.8506 107.944 55.0905 107.584 55.4503V54.011H105.065V66.6045H107.584V56.6497C107.704 56.5297 107.944 56.4098 107.944 56.2899C108.064 56.2899 108.304 56.1699 108.424 56.05C108.664 55.9301 108.903 55.9301 109.143 55.9301C109.503 55.9301 109.743 56.05 109.863 56.2899C109.983 56.4098 110.103 56.7696 110.103 57.2494V66.6045H112.622V55.9301C112.622 55.3304 112.382 54.8506 112.022 54.4908C111.782 54.131 111.302 53.8911 110.822 53.8911Z" fill="white"/>
<path d="M120.178 62.2868V63.2463C120.178 63.4861 120.178 63.6061 120.058 63.726C120.058 63.8459 120.058 63.9659 119.938 64.2058C119.938 64.3257 119.818 64.4456 119.698 64.4456C119.698 64.5656 119.578 64.5656 119.338 64.6855C119.218 64.6855 119.098 64.8054 118.978 64.8054C118.738 64.8054 118.618 64.6855 118.499 64.6855C118.379 64.5656 118.259 64.5656 118.139 64.4456C118.019 64.4456 118.019 64.3257 117.899 64.2058C117.899 63.9659 117.779 63.8459 117.779 63.726C117.779 63.6061 117.659 63.4861 117.659 63.2463V57.3693C117.659 57.2494 117.779 57.0095 117.779 56.8896C117.779 56.7696 117.899 56.6497 117.899 56.5297C118.019 56.4098 118.019 56.2899 118.139 56.1699C118.259 56.1699 118.379 56.05 118.499 56.05C118.618 55.9301 118.738 55.9301 118.978 55.9301C119.098 55.9301 119.218 55.9301 119.338 56.05C119.578 56.05 119.698 56.1699 119.698 56.1699C119.818 56.2899 119.938 56.4098 119.938 56.5297C120.058 56.6497 120.058 56.7696 120.058 56.8896C120.178 57.0095 120.178 57.2494 120.178 57.3693V62.2868ZM118.978 53.8911C117.539 53.8911 116.58 54.2509 115.98 55.0905C115.5 55.8101 115.14 57.0095 115.14 58.4487V62.2868C115.14 63.726 115.5 64.8054 115.98 65.645C116.58 66.3646 117.539 66.8444 118.978 66.8444C120.298 66.8444 121.257 66.3646 121.857 65.645C122.456 64.8054 122.696 63.726 122.696 62.2868V58.4487C122.696 57.0095 122.456 55.8101 121.857 55.0905C121.257 54.2509 120.298 53.8911 118.978 53.8911Z" fill="white"/>
<path d="M127.974 48.9736H125.335V66.7244H127.974V48.9736Z" fill="white"/>
<path d="M135.53 62.2868V63.2463C135.53 63.4861 135.53 63.6061 135.41 63.726C135.41 63.8459 135.41 63.9659 135.29 64.2058C135.29 64.3257 135.17 64.4456 135.05 64.4456C135.05 64.5656 134.93 64.5656 134.81 64.6855C134.57 64.6855 134.45 64.8054 134.33 64.8054C134.09 64.8054 133.971 64.6855 133.851 64.6855C133.731 64.5656 133.611 64.5656 133.491 64.4456C133.371 64.4456 133.371 64.3257 133.251 64.2058C133.251 63.9659 133.131 63.8459 133.131 63.726C133.131 63.6061 133.011 63.4861 133.011 63.2463V57.3693C133.011 57.2494 133.131 57.0095 133.131 56.8896C133.131 56.7696 133.251 56.6497 133.251 56.5297C133.371 56.4098 133.371 56.2899 133.491 56.1699C133.611 56.1699 133.731 56.05 133.851 56.05C133.971 55.9301 134.09 55.9301 134.33 55.9301C134.45 55.9301 134.57 55.9301 134.81 56.05C134.93 56.05 135.05 56.1699 135.05 56.1699C135.17 56.2899 135.29 56.4098 135.29 56.5297C135.41 56.6497 135.41 56.7696 135.41 56.8896C135.53 57.0095 135.53 57.2494 135.53 57.3693V62.2868ZM134.33 53.8911C132.891 53.8911 131.932 54.2509 131.332 55.0905C130.852 55.8101 130.492 57.0095 130.492 58.4487V62.2868C130.492 63.726 130.852 64.8054 131.332 65.645C131.932 66.3646 132.891 66.8444 134.33 66.8444C135.65 66.8444 136.609 66.3646 137.209 65.645C137.809 64.8054 138.048 63.726 138.048 62.2868V58.4487C138.048 57.0095 137.809 55.8101 137.209 55.0905C136.609 54.2509 135.65 53.8911 134.33 53.8911Z" fill="white"/>
<path fill-rule="evenodd" clip-rule="evenodd" d="M150.522 49.5734H153.16V52.212H150.522V49.5734ZM150.522 54.0111H153.16V66.7245H150.522V54.0111Z" fill="white"/>
<path d="M160.836 59.0484H158.438V57.4892C158.438 57.2494 158.558 57.0095 158.558 56.7696C158.678 56.5297 158.798 56.2899 159.037 56.1699C159.157 56.05 159.397 55.9301 159.637 55.9301C159.877 55.9301 160.117 56.05 160.237 56.1699C160.477 56.2899 160.597 56.4098 160.597 56.6497C160.717 57.0095 160.836 57.2494 160.836 57.4892V59.0484ZM163.115 56.8896C163.115 56.4098 162.995 56.05 162.755 55.6902C162.636 55.3304 162.396 54.9706 162.036 54.7307C161.796 54.4908 161.436 54.2509 161.076 54.131C160.597 53.8911 160.237 53.8911 159.637 53.8911C159.037 53.8911 158.558 54.011 158.078 54.131C157.598 54.3709 157.238 54.6107 156.998 54.8506C156.759 55.2104 156.519 55.5702 156.399 56.05C156.159 56.5297 156.039 57.0095 156.039 57.6092C155.919 58.0889 155.919 58.6886 155.919 59.2883C155.799 59.888 155.799 60.3677 155.919 60.9674C155.919 61.6871 155.919 62.2867 156.039 62.7665C156.039 63.3662 156.159 63.8459 156.279 64.3257C156.519 64.9254 156.639 65.2852 156.998 65.645C157.238 66.0048 157.598 66.2447 158.078 66.4846C158.438 66.7244 159.037 66.8444 159.637 66.8444C160.837 66.8444 161.796 66.4846 162.396 65.7649C162.995 65.0453 163.355 64.0858 163.355 62.7665H160.956C160.836 63.1263 160.836 63.3662 160.836 63.4861C160.836 63.726 160.717 63.9659 160.717 64.0858C160.597 64.3257 160.477 64.4456 160.237 64.5656C160.117 64.6855 159.877 64.8054 159.637 64.8054C159.397 64.8054 159.277 64.6855 159.037 64.5656L158.678 64.2058C158.678 64.0858 158.558 63.8459 158.558 63.6061C158.438 63.3662 158.438 63.1263 158.438 62.8864V62.1668C158.318 61.9269 158.318 61.5671 158.438 61.3272V60.3677H163.475V60.0079C163.475 59.4082 163.355 58.9285 163.355 58.4487C163.355 57.969 163.235 57.4892 163.115 56.8896Z" fill="white"/>
<path d="M172.351 61.5671C172.111 61.2073 171.991 60.9674 171.751 60.8475C171.511 60.6076 171.271 60.3677 171.031 60.1279L168.513 58.2089C168.153 57.969 167.913 57.6092 167.913 57.2494C167.913 56.7696 168.033 56.5297 168.273 56.2899C168.393 56.05 168.752 55.9301 169.112 55.9301C169.352 55.9301 169.592 56.05 169.832 56.1699C170.072 56.1699 170.192 56.4098 170.432 56.6497C170.551 56.7696 170.671 57.0095 170.791 57.1294C170.791 57.3693 170.911 57.6092 171.031 57.8491L172.95 57.2494C172.83 56.7696 172.71 56.2899 172.47 55.9301C172.231 55.5702 171.991 55.2104 171.751 54.8506C171.391 54.6107 171.031 54.3709 170.671 54.131C170.192 54.011 169.712 53.8911 169.112 53.8911C168.033 53.8911 167.073 54.131 166.354 54.7307C165.754 55.3304 165.394 56.1699 165.394 57.2494C165.394 57.6092 165.394 57.8491 165.514 58.2089C165.634 58.4487 165.754 58.8086 165.994 59.0484C166.114 59.2883 166.354 59.4082 166.594 59.6481C166.713 59.7681 166.953 60.0079 167.313 60.1279L169.712 62.0469C170.192 62.4067 170.432 62.8864 170.432 63.4861C170.432 63.8459 170.312 64.2058 170.072 64.4456C169.832 64.6855 169.592 64.8054 169.112 64.8054C168.393 64.8054 167.673 64.0858 167.313 62.8864L165.394 63.4861C165.634 64.4456 165.994 65.2852 166.594 65.8849C167.313 66.4846 168.153 66.8444 169.112 66.8444C170.312 66.8444 171.151 66.4846 171.871 66.0048C172.59 65.4051 172.95 64.5656 172.95 63.4861C172.95 63.1263 172.83 62.7665 172.83 62.4067C172.71 62.0469 172.47 61.807 172.351 61.5671Z" fill="white"/>
<path d="M3.59825 57.6092C3.47831 58.2089 3.23843 58.4488 2.75868 58.4488C2.15899 58.4488 1.91912 58.0889 1.91912 57.4892V56.5297C1.91912 56.05 1.91912 55.6902 2.15899 55.5702C2.27893 55.3304 2.51881 55.2104 2.87862 55.2104H3.59825V57.6092ZM5.15743 52.5718H3.59825V53.7712H2.87862C2.51881 53.7712 2.27893 53.6512 2.15899 53.5313C1.91912 53.2914 1.91912 53.0516 1.91912 52.6917V51.9721C1.91912 51.3724 2.15899 51.0126 2.63875 51.0126H4.55775V49.5734H2.63875C1.07956 49.5734 0.23999 50.4129 0.23999 52.0921V52.3319C0.23999 53.4114 0.599797 54.131 1.31942 54.3709C0.599797 54.7307 0.23999 55.4503 0.23999 56.5297V57.6092C0.23999 59.1684 0.839674 59.888 2.03905 59.888C2.75868 59.888 3.23843 59.6481 3.59825 59.0484C3.59825 59.2883 3.59824 59.6481 3.71818 59.888H5.27737C5.15744 59.5282 5.15743 59.1684 5.15743 58.5687V55.2104H5.63719V53.7712H5.15743V52.5718Z" fill="white"/>
<path d="M12.8334 57.3693C12.8334 58.0889 12.5935 58.3288 11.9938 58.3288H11.0343V51.0126H11.9938C12.5935 51.0126 12.8334 51.3724 12.8334 51.9721V57.3693ZM11.9938 49.5734H9.4751V59.888H11.9938C13.6729 59.888 14.3925 58.9285 14.3925 57.2494V52.0921C14.3925 50.4129 13.6729 49.5734 11.9938 49.5734Z" fill="white"/>
<path d="M15.8318 59.888H20.2695V58.3288H17.5109V55.3304H19.6698V53.8911H17.5109V51.0126H20.2695V49.5734H15.8318V59.888Z" fill="white"/>
<path d="M1.79912 34.3413V27.0251H2.63869C3.23838 27.0251 3.47825 27.265 3.47825 27.9846V33.2619C3.47825 33.9815 3.23838 34.3413 2.63869 34.3413H1.79912ZM5.15738 33.2619V27.9846C5.15738 26.3055 4.31781 25.4659 2.75862 25.4659H0.119995V35.7806H2.75862C4.31781 35.7806 5.15738 34.941 5.15738 33.2619Z" fill="white"/>
<path d="M11.0344 34.3413H8.15587V31.3429H10.4347V29.7837H8.15587V27.0251H11.0344V25.4659H6.59668V35.7806H11.0344V34.3413Z" fill="white"/>
<path d="M4.31787 18.5095C5.75712 18.5095 6.71663 18.1497 7.55619 17.3101C8.27582 16.5905 8.63563 15.5111 8.63563 14.0718V11.6731H5.87706V14.1918C5.87706 15.3911 5.39731 15.9908 4.43781 15.9908C3.47831 15.9908 2.99855 15.3911 2.99855 14.1918V4.71668C2.99855 3.51731 3.47831 2.91762 4.43781 2.91762C5.39731 2.91762 5.87706 3.51731 5.87706 4.71668V6.63569H8.63563V4.83662C8.63563 3.39737 8.27582 2.31793 7.55619 1.5983C6.71663 0.758739 5.75712 0.398926 4.31787 0.398926C2.99855 0.398926 1.91912 0.758739 1.19949 1.5983C0.479865 2.31793 0.23999 3.39737 0.23999 4.83662V14.0718C0.23999 15.5111 0.479865 16.5905 1.19949 17.3101C1.91912 18.1497 2.99855 18.5095 4.31787 18.5095Z" fill="#7DB928"/>
<path d="M32.7431 58.8085L29.8646 48.9736H26.1465V66.6045H28.9051V54.7306L32.3832 66.6045H35.2618V48.9736H32.7431V58.8085Z" fill="#7DB928"/>
<path d="M22.0686 34.5812L19.1901 24.8662H15.472V42.4971H18.2306V30.5033L21.5889 42.4971H24.4674V24.8662H22.0686V34.5812Z" fill="#7DB928"/>
<path d="M146.924 69.1232C146.804 69.483 146.444 69.7229 146.084 69.9628C145.604 70.2026 145.005 70.4425 144.405 70.4425C143.565 70.4425 142.846 70.0827 142.366 69.7229C142.126 69.483 141.886 69.3631 141.766 69.1232C141.646 68.8833 141.646 68.6434 141.646 68.4036V68.2836C141.646 67.9238 141.766 67.4441 142.006 67.0843C142.246 66.7244 142.486 66.4846 142.726 66.3646H142.846C143.805 66.3646 144.525 66.3646 145.964 66.9643C146.684 67.2042 146.924 67.6839 146.924 67.8039C147.164 67.9238 147.164 68.1637 147.164 68.4036C147.164 68.6434 147.044 68.8833 146.924 69.1232ZM142.606 57.4892C142.606 57.1294 142.726 56.8896 142.846 56.5297C142.966 56.2899 143.086 56.05 143.326 55.9301C143.565 55.6902 143.805 55.5702 144.045 55.5702C144.405 55.5702 144.645 55.6902 144.885 55.9301C145.125 56.05 145.245 56.2899 145.365 56.5297C145.484 56.8896 145.484 57.1294 145.604 57.4892V58.4487C145.604 60.2478 145.125 61.0874 144.045 61.0874C143.086 61.0874 142.486 60.2478 142.486 58.4487C142.486 58.0889 142.486 57.7291 142.606 57.4892ZM149.322 68.4036C149.322 67.8039 149.203 67.2042 148.843 66.7244C148.483 66.0048 147.883 65.4051 147.044 65.0453C146.444 64.8054 145.844 64.6855 145.245 64.5656C145.005 64.5656 144.765 64.5656 144.525 64.4456H144.165C143.805 64.4456 143.565 64.3257 143.326 64.3257C143.086 64.3257 142.846 64.2058 142.726 64.0858L142.606 63.9659C142.486 63.9659 142.486 63.8459 142.486 63.726V63.4861C142.486 63.3662 142.606 63.2463 142.606 63.2463C142.606 63.2463 142.606 63.1263 142.726 63.0064L142.846 62.8864L144.045 63.0064H144.165C144.885 63.0064 145.604 62.7665 146.204 62.4067C146.804 62.0469 147.164 61.4472 147.403 60.8475C147.763 60.1279 147.883 59.2883 147.883 58.4487C147.883 58.0889 147.763 57.7291 147.763 57.2494C147.643 57.0095 147.643 56.7696 147.523 56.6497C147.523 56.4098 147.643 56.05 147.883 56.05C148.003 55.9301 148.123 55.9301 148.363 55.9301H149.083V53.8911H148.963C148.243 53.8911 147.643 54.2509 147.164 54.8506C146.924 55.0905 146.564 55.0905 146.444 54.8506C146.324 54.7307 146.204 54.6107 146.204 54.6107C145.964 54.3709 145.604 54.2509 145.245 54.131C145.005 53.8911 144.525 53.8911 144.045 53.8911C143.326 53.8911 142.606 54.131 142.006 54.4908C141.407 54.8506 141.047 55.4503 140.687 56.1699C140.447 56.7696 140.327 57.6092 140.327 58.4487C140.327 60.0079 140.687 61.2073 141.526 62.2868L141.407 62.4067C141.287 62.5266 141.167 62.6466 141.167 62.7665C141.167 62.7665 141.047 62.8864 140.927 63.0064C140.927 63.1263 140.807 63.2462 140.807 63.3662C140.687 63.3662 140.687 63.4861 140.567 63.6061C140.567 63.726 140.447 63.8459 140.447 63.9659C140.447 64.0858 140.327 64.2058 140.327 64.3257V64.6855C140.327 64.8054 140.327 65.0453 140.447 65.1653C140.447 65.1653 140.567 65.2852 140.687 65.2852C140.687 65.4051 140.927 65.5251 140.927 65.5251L140.687 65.645C140.327 66.0048 140.087 66.3646 139.847 66.7244C139.607 67.2042 139.488 67.8039 139.488 68.4036C139.488 69.0033 139.607 69.6029 139.847 70.0827C140.327 70.9223 140.927 71.522 141.766 71.8818C142.486 72.3615 143.445 72.6014 144.405 72.6014C145.724 72.6014 146.924 72.1216 147.763 71.402C148.243 71.0422 148.603 70.6824 148.843 70.0827C149.203 69.6029 149.322 69.0033 149.322 68.4036Z" fill="white"/>
</g>
<defs>
<clipPath id="clip0_15_8509">
<rect width="172.83" height="72.2025" fill="white" transform="translate(0.119995 0.398926)"/>
</clipPath>
</defs>
</svg>
