<svg width="11" height="20" viewBox="0 0 11 20" fill="none" xmlns="http://www.w3.org/2000/svg">
<path d="M10.6753 10.1055C10.6753 9.83471 10.567 9.56405 10.3612 9.37988L1.7738 0.998244C1.58971 0.814168 1.35146 0.705868 1.08074 0.705868C0.517632 0.705868 0.0844719 1.12826 0.0844719 1.6913C0.0844719 1.96205 0.192764 2.21109 0.366028 2.39526L8.84513 10.6902L8.84513 9.53152L0.366029 17.8265C0.192765 17.9998 0.0844726 18.2489 0.0844726 18.5304C0.0844726 19.0935 0.517633 19.5159 1.08075 19.5159C1.35146 19.5159 1.58971 19.4076 1.78463 19.2235L10.3612 10.8418C10.567 10.6361 10.6753 10.387 10.6753 10.1055Z" fill="#7DB928"/>
</svg>
