<svg width="14" height="24" viewBox="0 0 14 24" fill="none" xmlns="http://www.w3.org/2000/svg">
<path d="M13.703 11.7894C13.703 11.4499 13.5672 11.1104 13.3091 10.8794L2.53829 0.366645C2.30739 0.135766 2.00856 -7.03154e-05 1.66902 -7.03006e-05C0.962727 -7.02697e-05 0.419433 0.52972 0.419433 1.23592C0.419433 1.57551 0.555259 1.88787 0.772577 2.11886L11.4076 12.5229L11.4076 11.0696L0.772578 21.4737C0.55526 21.691 0.419434 22.0034 0.419434 22.3565C0.419434 23.0628 0.962728 23.5925 1.66902 23.5925C2.00857 23.5925 2.30739 23.4567 2.55187 23.2258L13.3091 12.7131C13.5672 12.455 13.703 12.1426 13.703 11.7894Z" fill="#7DB928"/>
</svg>
