<svg width="14" height="24" viewBox="0 0 14 24" fill="none" xmlns="http://www.w3.org/2000/svg">
<path d="M13.7837 11.7897C13.7837 11.4501 13.6479 11.1106 13.3898 10.8796L2.61898 0.366889C2.38808 0.13601 2.08925 0.000173914 1.74971 0.00017391C1.04342 0.000173901 0.500122 0.529964 0.500122 1.23616C0.500122 1.57576 0.635949 1.88811 0.853267 2.11911L11.4883 12.5231L11.4883 11.0698L0.853266 21.4739C0.635948 21.6912 0.500122 22.0036 0.500122 22.3568C0.500122 23.0631 1.04342 23.5928 1.74971 23.5928C2.08925 23.5928 2.38807 23.4569 2.63256 23.226L13.3898 12.7133C13.6479 12.4552 13.7837 12.1428 13.7837 11.7897Z" fill="#7DB928"/>
</svg>
