<svg width="18" height="24" viewBox="0 0 18 24" fill="none" xmlns="http://www.w3.org/2000/svg">
<path d="M4.00533 20.2495V8.34821H0.306668V20.2495H4.00533ZM2.15645 6.64598C3.34489 6.64598 4.312 5.67887 4.312 4.48954C4.312 3.3011 3.34489 2.33398 2.15645 2.33398C0.965334 2.33398 0 3.29932 0 4.48954C0 5.67976 0.963557 6.64598 2.15645 6.64598ZM17.8809 20.2495V13.7224C17.8809 10.518 17.1884 8.0531 13.4436 8.0531C11.6444 8.0531 10.4382 9.03976 9.944 9.97487H9.89422V8.3491H6.34578V20.2504H10.0418V14.3624C10.0418 12.8104 10.3378 11.3073 12.2622 11.3073C14.1591 11.3073 14.184 13.0824 14.184 14.4629V20.2504L17.8809 20.2495Z" fill="white"/>
</svg>
