<svg width="18" height="24" viewBox="0 0 18 24" fill="none" xmlns="http://www.w3.org/2000/svg">
<path d="M4.00533 20.2498V8.34845H0.306668V20.2498H4.00533ZM2.15645 6.64623C3.34489 6.64623 4.312 5.67912 4.312 4.48979C4.312 3.30134 3.34489 2.33423 2.15645 2.33423C0.965334 2.33423 0 3.29956 0 4.48979C0 5.68001 0.963557 6.64623 2.15645 6.64623ZM17.8809 20.2498V13.7227C17.8809 10.5182 17.1884 8.05334 13.4436 8.05334C11.6444 8.05334 10.4382 9.04001 9.944 9.97512H9.89422V8.34934H6.34578V20.2507H10.0418V14.3627C10.0418 12.8107 10.3378 11.3076 12.2622 11.3076C14.1591 11.3076 14.184 13.0827 14.184 14.4631V20.2507L17.8809 20.2498Z" fill="white"/>
</svg>
