<svg width="10" height="18" viewBox="0 0 10 18" fill="none" xmlns="http://www.w3.org/2000/svg">
<path d="M9.60838 9.09109C9.60838 8.85726 9.51485 8.62351 9.33712 8.46445L1.92076 1.22577C1.76177 1.06679 1.55601 0.973261 1.32221 0.973261C0.835884 0.973261 0.461791 1.33806 0.461791 1.82432C0.461791 2.05815 0.555316 2.27323 0.704954 2.43228L8.02782 9.59612L8.02782 8.59541L0.704954 15.7593C0.555317 15.9089 0.461792 16.124 0.461792 16.3672C0.461792 16.8535 0.835885 17.2183 1.32221 17.2183C1.55601 17.2183 1.76177 17.1247 1.93011 16.9657L9.33712 9.72705C9.51485 9.54936 9.60838 9.33425 9.60838 9.09109Z" fill="#7DB928"/>
</svg>
