<svg width="10" height="18" viewBox="0 0 10 18" fill="none" xmlns="http://www.w3.org/2000/svg">
<path d="M9.80402 8.59572C9.80402 8.34958 9.70556 8.10352 9.51848 7.9361L1.71178 0.31643C1.54442 0.149089 1.32783 0.0506339 1.08173 0.0506339C0.569806 0.050634 0.176025 0.434628 0.176025 0.946481C0.176025 1.19262 0.274472 1.41902 0.431985 1.58645L8.14026 9.12733L8.14026 8.07395L0.431986 15.6149C0.274473 15.7724 0.176025 15.9988 0.176025 16.2548C0.176025 16.7667 0.569807 17.1506 1.08173 17.1506C1.32783 17.1506 1.54442 17.0522 1.72162 16.8848L9.51848 9.26515C9.70556 9.0781 9.80402 8.85168 9.80402 8.59572Z" fill="#7DB928"/>
</svg>
