<svg width="14" height="24" viewBox="0 0 14 24" fill="none" xmlns="http://www.w3.org/2000/svg">
<path d="M0.297464 11.8031C0.297464 12.1427 0.433303 12.4822 0.691418 12.7131L11.4622 23.2259C11.6931 23.4568 11.9919 23.5926 12.3315 23.5926C13.0378 23.5926 13.5811 23.0628 13.5811 22.3566C13.5811 22.017 13.4452 21.7047 13.2279 21.4737L2.59292 11.0696L2.59292 12.523L13.2279 2.11884C13.4452 1.90152 13.5811 1.58913 13.5811 1.236C13.5811 0.529712 13.0378 -2.37482e-08 12.3315 -5.4621e-08C11.9919 -6.94632e-08 11.6931 0.135824 11.4486 0.366723L0.691418 10.8795C0.433303 11.1375 0.297464 11.4499 0.297464 11.8031Z" fill="#7DB928"/>
</svg>
