<svg width="10" height="18" viewBox="0 0 10 18" fill="none" xmlns="http://www.w3.org/2000/svg">
<path d="M9.80396 8.59572C9.80396 8.34958 9.7055 8.10352 9.51842 7.9361L1.71172 0.31643C1.54436 0.149089 1.32777 0.0506339 1.08167 0.0506339C0.569745 0.050634 0.175964 0.434628 0.175964 0.946481C0.175964 1.19262 0.274411 1.41902 0.431924 1.58645L8.1402 9.12733L8.1402 8.07395L0.431924 15.6149C0.274412 15.7724 0.175964 15.9988 0.175964 16.2548C0.175964 16.7667 0.569746 17.1506 1.08167 17.1506C1.32777 17.1506 1.54436 17.0522 1.72156 16.8848L9.51842 9.26515C9.7055 9.0781 9.80396 8.85168 9.80396 8.59572Z" fill="#7DB928"/>
</svg>
