<svg width="8" height="16" viewBox="0 0 8 16" fill="none" xmlns="http://www.w3.org/2000/svg">
<path d="M8 7.99588C8 7.79136 7.91819 7.58691 7.76274 7.44779L1.27607 1.11653C1.13701 0.977487 0.957049 0.89568 0.752557 0.89568C0.327197 0.89568 -6.07129e-07 1.21474 -5.88539e-07 1.64005C-5.79599e-07 1.84457 0.0818004 2.03269 0.212679 2.1718L6.61757 8.4376L6.61757 7.56234L0.21268 13.8282C0.081801 13.9591 -4.1834e-08 14.1472 -3.25377e-08 14.3599C-1.39447e-08 14.7852 0.327197 15.1042 0.752558 15.1042C0.95705 15.1042 1.13701 15.0224 1.28425 14.8834L7.76274 8.55212C7.91819 8.3967 8 8.20856 8 7.99588Z" fill="white"/>
</svg>
